<svg width="110" height="110" viewBox="0 0 110 110" fill="none" xmlns="http://www.w3.org/2000/svg">
<circle cx="55" cy="55" r="41" fill="#2A1A1F"/>
<path d="M89 54.5C89 73.5538 73.5538 89 54.5 89C35.4462 89 20 73.5538 20 54.5C20 35.4462 35.4462 20 54.5 20C73.5538 20 89 35.4462 89 54.5Z" fill="#D6CFAE"/>
<path d="M49.2105 75.2631V60.7895H60.7895V75.2631C60.7895 76.8553 62.0921 78.1579 63.6842 78.1579H72.3684C73.9605 78.1579 75.2631 76.8553 75.2631 75.2631V55H80.1842C81.5158 55 82.1526 53.35 81.1395 52.4816L56.9395 30.6842C55.8395 29.7 54.1605 29.7 53.0605 30.6842L28.8605 52.4816C27.8763 53.35 28.4842 55 29.8158 55H34.7368V75.2631C34.7368 76.8553 36.0395 78.1579 37.6316 78.1579H46.3158C47.9079 78.1579 49.2105 76.8553 49.2105 75.2631Z" fill="#4A8694"/>
</svg>
