<svg width="241" height="241" viewBox="0 0 241 241" fill="none" xmlns="http://www.w3.org/2000/svg">
<path d="M120.5 48.3172C161.13 48.3172 194 80.8137 194 120.817C194 160.821 161.13 193.317 120.5 193.317C79.8697 193.317 47 160.821 47 120.817C47 80.8137 79.8697 48.3172 120.5 48.3172Z" fill="#4A8694" stroke="#2A1A1F" stroke-width="6"/>
<g clip-path="url(#clip0_53_346)">
<path d="M47.847 172.745C47.8688 172.714 47.8882 172.675 47.9099 172.639C47.495 172.262 47.0897 171.891 46.6893 171.52C46.7131 173.277 47.0145 174.034 47.8446 172.743L47.847 172.745Z" fill="#8C6239"/>
<path d="M112.163 143.774C111.465 143.613 111.065 143.509 111.004 143.492L110.864 143.453L110.735 143.382C110.003 142.984 106.987 141.315 103.528 138.965C102.764 140.554 101.932 142.284 101.073 144.084C102.674 145.143 104.205 146.097 105.546 146.897C106.117 145.685 106.586 144.784 106.889 144.321C107.646 143.166 108.694 145.409 109.885 148.78C110.935 149.012 112.39 149.309 114.182 149.624C113.122 147.15 112.368 145.05 112.166 143.777L112.163 143.774Z" fill="#8C6239"/>
<path d="M130.948 64.1862C130.948 64.1862 130.936 64.1886 130.931 64.1886C131.877 64.3593 133.302 64.6663 135.07 65.204C139.425 63.6743 142.365 62.8703 144.549 63.1563C145.844 63.3275 146.857 63.4352 147.633 63.5088C145.952 62.5106 144.358 61.6822 142.898 60.997C142.336 60.7345 141.787 60.4915 141.247 60.2606C139.652 61.1122 138.573 60.8419 139.61 59.5921C138.785 59.2712 137.992 58.9867 137.243 58.7362C134.354 61.7366 131.881 64.0684 130.943 64.1862L130.948 64.1862Z" fill="#8C6239"/>
<path d="M154.478 134.902C154.156 135.113 153.831 135.321 153.507 135.529C154.432 137.069 155.313 138.571 156.057 139.905C156.953 139.339 157.849 138.768 158.738 138.194C159.388 137.773 160.008 137.328 160.601 136.87C159.623 135.475 158.557 133.978 157.537 132.571C156.607 133.399 155.592 134.186 154.478 134.907L154.478 134.902Z" fill="#8C6239"/>
<path d="M111.399 72.6154C111.675 72.7078 112.088 72.8683 112.599 73.0797C118.735 68.9484 123.184 66.6115 125.917 65.3539C120.04 66.7801 110.811 69.0584 107.875 69.5473C106.475 70.5688 105.097 71.7915 103.756 73.1427C107.316 72.0582 109.27 71.9003 111.396 72.613L111.399 72.6154Z" fill="#8C6239"/>
<path d="M165.606 98.2531C165.948 100.537 166.205 102.862 166.399 105.027C168.422 106.469 170.563 108.707 172.412 110.532C172.311 108.779 172.17 106.755 171.981 104.604C169.96 102.951 167.515 101.378 168.331 100.445C168.558 100.184 169.665 99.5133 171.335 98.6109C171.212 97.6605 171.085 96.7392 170.951 95.859C168.395 96.998 166.451 97.8492 165.754 98.1878C165.71 98.2071 165.657 98.2313 165.606 98.2531Z" fill="#8C6239"/>
<path d="M161.961 127.483C162.603 127.626 163.238 127.787 163.854 127.962C165.203 128.347 166.544 128.569 167.826 128.67C169.055 126.669 169.994 124.696 170.7 122.932C168.84 122.826 166.825 122.637 164.765 122.383C164.058 123.992 163.142 125.739 161.958 127.48L161.961 127.483Z" fill="#8C6239"/>
<path d="M93.7477 96.3968L93.7815 96.3193C93.9412 95.9995 95.9489 92.0211 99.0346 87.3676C98.1127 86.7121 96.6884 85.5735 95.036 84.1923C92.2576 88.388 90.1915 92.1384 89.2795 93.8513C90.8702 94.2991 92.1724 94.6472 92.83 95.2079C93.0338 95.3827 93.347 95.7927 93.7452 96.3944L93.7477 96.3968Z" fill="#8C6239"/>
<path d="M111.002 152.076C111.566 153.783 112.15 155.578 112.741 157.263C114.375 157.536 116.21 157.817 118.22 158.079C117.324 156.354 116.452 154.596 115.662 152.91C113.841 152.62 112.275 152.332 111.002 152.076Z" fill="#8C6239"/>
<path d="M175.545 113.243C175.976 113.501 176.343 113.625 176.633 113.572C178.034 113.311 179.506 113.548 180.66 113.613C180.623 112.805 180.578 111.903 180.519 110.929C178.889 109.938 176.701 108.801 175.228 107.721C175.381 109.859 175.48 111.76 175.545 113.243Z" fill="#8C6239"/>
<path d="M92.7236 82.2334C91.588 81.2576 90.4135 80.2236 89.2681 79.2042C85.9549 84.158 83.4605 88.6522 82.2871 90.8448C83.5972 91.7917 85.0113 92.4502 86.3718 92.9487C87.158 91.4344 89.466 87.1122 92.7211 82.2358L92.7236 82.2334Z" fill="#8C6239"/>
<path d="M98.0343 75.0345C99.6104 73.1236 101.286 71.2976 103.03 69.685C100.533 69.8083 97.7936 69.9265 97.793 69.4659C97.7922 68.661 97.3099 68.8229 102.861 65.8497C108.411 62.8764 113.156 59.2623 116.293 56.9313C119.43 54.6002 119.831 53.2334 114.522 55.9645C112.812 56.845 110.566 58.1589 108.216 59.5575C107.073 60.3223 105.89 61.1258 104.66 61.9826C100.147 65.1267 95.7938 70.1206 92.1049 75.1541C94.0349 75.4907 96.0422 75.5317 98.0368 75.037L98.0343 75.0345Z" fill="#8C6239"/>
<path d="M174.157 97.1328C175.611 96.3926 177.251 95.5823 178.979 94.7624C178.861 93.9429 178.739 93.1428 178.615 92.3693C176.955 93.1457 175.315 93.8978 173.779 94.5894C173.91 95.4089 174.037 96.2527 174.157 97.1328Z" fill="#8C6239"/>
<path d="M171.341 128.654C173.634 128.453 175.508 127.905 176.569 127.334C176.779 127.22 177.153 127.274 177.652 127.454C178.603 125.368 179.292 123.446 179.78 121.866C178.811 122.655 176.678 122.992 173.909 123.018C173.283 124.722 172.444 126.653 171.341 128.654Z" fill="#8C6239"/>
<path d="M148.164 58.7313C147.089 58.4707 146.052 58.4841 145.022 58.6987C147.394 59.8601 150.053 61.3661 152.828 63.3085C154.525 62.9904 156.861 62.3724 159.713 61.1755C158.429 60.1099 157.158 59.1291 155.901 58.2307C152.501 58.724 149.272 59.0016 148.161 58.7289L148.164 58.7313Z" fill="#8C6239"/>
<path d="M140.596 55.1836C140.233 55.5759 139.867 55.9658 139.504 56.3533C140.377 56.6694 141.292 57.0268 142.242 57.4302C143.809 56.2708 145.677 54.7189 147.629 53.1793C146.926 52.8197 146.239 52.482 145.579 52.1758C145.271 52.0324 144.968 51.8939 144.665 51.7602C143.086 52.8736 141.674 54.0284 140.599 55.186L140.596 55.1836Z" fill="#8C6239"/>
<path d="M104.306 149.627C103.086 148.906 101.516 147.947 99.779 146.81C99.0462 148.363 98.3134 149.941 97.6096 151.494C99.3078 152.587 100.904 153.558 102.289 154.362C102.995 152.656 103.679 151.05 104.303 149.63L104.306 149.627Z" fill="#8C6239"/>
<path d="M164.112 141.887C163.724 141.339 163.092 140.427 162.32 139.32C161.698 139.797 161.049 140.257 160.368 140.7C159.401 141.327 158.427 141.946 157.451 142.559C157.932 143.563 158.2 144.295 158.159 144.618C158.116 144.947 158.056 146.007 157.992 147.531C160.119 146.244 162.237 144.903 164.337 143.546C164.686 143.318 165.027 143.083 165.367 142.846C164.763 142.513 164.326 142.193 164.115 141.89L164.112 141.887Z" fill="#8C6239"/>
<path d="M106.876 130.724C106.831 131.473 106.706 132.122 106.476 132.653C106.024 133.702 105.381 135.088 104.614 136.699C107.387 138.615 110.058 140.211 111.775 141.153C111.857 141.173 111.976 141.204 112.129 141.241C112.067 139.575 111.872 136.984 111.576 133.912C110.202 133.062 108.536 131.972 106.876 130.728L106.876 130.724Z" fill="#8C6239"/>
<path d="M156.063 130.565C154.546 128.539 153.296 126.998 152.828 126.748C151.831 126.221 155.264 126.292 159.286 126.963C160.501 125.311 161.45 123.62 162.185 122.05C160.017 121.742 157.845 121.386 155.796 121.013C154.843 122.825 153.553 124.751 151.807 126.497C151.049 127.255 150.201 127.976 149.261 128.644C150.17 130.09 151.199 131.74 152.231 133.426C152.534 133.23 152.839 133.036 153.142 132.84C154.213 132.148 155.184 131.381 156.068 130.569L156.063 130.565Z" fill="#8C6239"/>
<path d="M100.11 102.144L101.472 99.1471C101.656 98.7788 104.994 92.1741 109.536 86.8604C104.707 87.1217 104.171 87.2545 104.171 87.2545C104.171 87.2545 102.923 87.5998 101.724 87.8142C98.4078 92.6832 96.1629 97.0734 95.9936 97.4078L95.2875 98.9682C96.3999 100.948 97.7458 103.548 99.1235 106.446C99.3591 104.604 99.6895 103.075 100.113 102.142L100.11 102.144Z" fill="#8C6239"/>
<path d="M157.857 105.987C159.359 105.364 160.544 104.737 161.254 104.139C161.983 103.522 162.848 103.423 163.794 103.676C163.794 103.672 163.791 103.664 163.791 103.659C163.627 102.023 163.441 100.496 163.236 99.0698C161.576 99.5698 159.402 100.152 157.243 100.704C157.509 102.491 157.71 104.305 157.857 105.992L157.857 105.987Z" fill="#8C6239"/>
<path d="M124.682 75.9561C121.961 74.8137 119.257 73.5235 117.968 72.5402C117.123 73.0653 116.236 73.6316 115.304 74.2439C117.29 75.1164 119.744 76.2149 122.206 77.2915C123.124 76.7713 123.951 76.3286 124.682 75.9561Z" fill="#8C6239"/>
<path d="M130.929 66.7C130.34 66.5806 129.906 66.5098 129.656 66.478C128.97 66.7173 126.76 67.5585 123.09 69.5495C123.291 69.4794 123.494 69.407 123.71 69.3272C126.415 68.3653 128.804 67.4807 130.929 66.7Z" fill="#8C6239"/>
<path d="M131.19 138.072C134.635 140.558 136.008 141.607 133.636 136.697C132.599 137.002 131.567 137.238 130.542 137.399C130.76 137.691 130.976 137.921 131.19 138.072Z" fill="#8C6239"/>
<path d="M153.184 89.3231C153.653 89.9758 154.116 90.6478 154.566 91.3586C154.838 91.7855 155.085 92.29 155.319 92.843C157.244 91.2767 158.84 89.8215 159.627 88.6805C159.857 88.3487 160.041 88.0434 160.183 87.7648C160.152 87.7139 160.12 87.6532 160.091 87.6047C159.739 87.0492 159.382 86.5033 159.02 85.9769C157.775 86.3052 155.802 87.3697 153.189 89.3183L153.184 89.3231Z" fill="#8C6239"/>
<path d="M127.412 95.6025C128.505 95.7855 129.531 95.8085 130.486 95.5768C129.579 95.2509 128.912 95.0975 128.662 95.0463C128.476 95.1164 128.049 95.2905 127.412 95.6025Z" fill="#8C6239"/>
<path d="M120.044 103.771C119.775 103.647 119.362 103.404 118.846 103.072C118.105 104.259 117.641 105.175 117.629 105.196L117.065 106.435C116.893 106.81 116.758 107.547 116.67 108.446C119.961 109.669 122.471 110.47 122.789 111.5C123.025 112.269 123.756 115.717 124.755 119.897C125.475 120.017 126.358 120.134 127.364 120.225C127.948 120.277 128.552 120.236 129.165 120.128C128.633 117.398 128.292 115.293 128.264 114.723C128.227 113.95 131.671 115.282 135.591 117.235C135.838 117.081 136.085 116.921 136.332 116.761C137.068 116.282 137.664 115.706 138.146 115.098C135.332 113.548 132.547 111.93 131.882 111.265C133.296 111.551 136.377 111.285 140.051 110.678C140.011 109.316 139.777 103.754 138.624 101.952C138.305 101.454 137.97 100.993 137.621 100.562C135.605 101.902 134.057 102.824 133.408 102.974C131.316 103.454 122.142 104.731 120.046 103.764L120.044 103.771ZM131.749 106.55C132.232 107.266 132.249 109.496 132.249 109.593C132.239 109.666 132.078 110.618 131.354 111.342C131.226 111.471 131.083 111.589 130.918 111.696C129.918 112.347 128.854 112.94 127.867 112.854C126.96 112.775 126.366 112.622 126.345 112.614L126.306 112.6C126.114 112.495 124.411 111.553 124.246 110.728C124.087 109.945 124.146 108.484 124.349 108.033L124.531 107.633C124.569 107.56 125.375 105.988 126.3 105.325C127.206 104.671 128.204 104.241 128.246 104.224L128.306 104.197L128.367 104.219C128.461 104.251 130.707 105.01 131.744 106.545L131.749 106.55Z" fill="#8C6239"/>
<path d="M126.507 105.609C125.654 106.228 124.853 107.772 124.846 107.789L124.667 108.181C124.505 108.537 124.436 109.907 124.585 110.666C124.697 111.224 125.954 112.02 126.453 112.292C126.562 112.319 127.113 112.448 127.898 112.517C128.783 112.593 129.784 112.029 130.731 111.412C131.702 110.78 131.907 109.581 131.91 109.568C131.904 108.982 131.817 107.268 131.465 106.746C130.584 105.443 128.69 104.707 128.326 104.575C128.096 104.679 127.257 105.071 126.507 105.613L126.507 105.609Z" fill="#8C6239"/>
<path d="M189.966 86.5419C190.156 87.5748 190.342 88.6466 190.517 89.7619C191.945 89.2229 193.27 88.771 194.419 88.4377C194.192 86.9805 193.958 85.5888 193.711 84.2624C193.076 84.5042 192.468 84.8308 191.899 85.2592C191.378 85.6538 190.724 86.0846 189.968 86.5443L189.966 86.5419Z" fill="#8C6239"/>
<path d="M192.043 123.819C193.604 123.733 195.115 123.718 196.366 123.797C196.812 122.132 197.041 120.971 197.119 120.545C197.116 120.513 197.118 120.472 197.116 120.435C195.695 120.371 194.275 120.316 192.886 120.283C192.751 120.986 192.49 122.217 192.041 123.821L192.043 123.819Z" fill="#8C6239"/>
<path d="M157.825 160.939C157.849 162.256 157.884 163.55 157.939 164.767C158.859 164.279 159.782 163.783 160.703 163.27C160.648 162.014 160.606 160.707 160.578 159.401C159.662 159.923 158.746 160.436 157.828 160.937L157.825 160.939Z" fill="#8C6239"/>
<path d="M93.0211 162.931C92.5236 164.598 92.2898 165.905 92.4289 166.678C92.4703 166.904 92.5094 167.141 92.5484 167.384C94.0306 168.275 95.3794 169.052 96.5364 169.696C96.9181 168.504 97.3676 167.19 97.863 165.802C96.8005 165.199 95.1025 164.213 93.0235 162.929L93.0211 162.931Z" fill="#8C6239"/>
<path d="M188.072 134.071C189.195 134.86 190.318 135.65 191.405 136.397C191.94 135.387 192.431 134.391 192.878 133.42C191.685 132.706 190.506 131.982 189.387 131.28C188.991 132.186 188.551 133.122 188.074 134.074L188.072 134.071Z" fill="#8C6239"/>
<path d="M123.802 170.533C122.517 170.42 121.274 170.295 120.071 170.163C121.079 171.563 122.13 172.953 123.154 174.167C123.31 174.181 123.462 174.194 123.62 174.211C125.518 174.38 127.445 174.385 129.394 174.256C128.719 173.208 127.501 172.053 126.13 170.657C125.352 170.639 124.576 170.604 123.805 170.536L123.802 170.533Z" fill="#8C6239"/>
<path d="M175.052 150.236C176.444 150.655 177.868 151.085 179.289 151.518C180.437 150.579 181.514 149.598 182.524 148.584C181.147 148.165 179.757 147.754 178.392 147.348C177.351 148.345 176.239 149.311 175.05 150.234L175.052 150.236Z" fill="#8C6239"/>
<path d="M158.53 43.8556C158.387 43.9306 158.242 44.008 158.094 44.0879C158.666 44.4424 159.244 44.8115 159.829 45.1976C161.335 43.609 161.35 42.3509 158.533 43.858L158.53 43.8556Z" fill="#8C6239"/>
<path d="M77.3633 154.349C77.8527 154.049 78.354 153.567 78.8333 152.966C78.0399 152.318 77.2804 151.675 76.5597 151.041C76.1186 153.346 76.0745 155.138 77.3633 154.349Z" fill="#8C6239"/>
<path d="M64.9084 113.223C63.9977 116.172 62.9746 118.307 61.8943 119.12C61.5988 119.343 61.2718 119.597 60.9255 119.875C60.925 123.827 61.0724 127.8 61.3965 131.495C62.5993 127.482 63.8631 123.772 64.8472 121.506C64.786 118.748 64.8096 115.948 64.9084 113.223Z" fill="#8C6239"/>
<path d="M68.6266 84.2165C68.6395 87.0722 68.5168 90.1266 68.2778 93.2051L70.7106 87.8406C71.0493 87.1622 76.3225 76.7099 83.933 66.556C83.2438 65.9056 82.3387 65.0634 81.3268 64.1435C79.6686 66.3792 78.001 68.7701 76.3311 71.3137C72.8872 76.5728 70.1895 81.3334 68.6266 84.2165Z" fill="#8C6239"/>
<path d="M144.987 121.445C144.728 121.704 144.454 121.953 144.166 122.198C145.345 123.033 146.211 123.778 146.546 124.326C146.869 124.853 147.467 125.799 148.227 127.004C150.761 125.179 152.54 122.842 153.774 120.632C151.063 120.106 148.665 119.572 146.892 119.117C146.362 119.909 145.733 120.699 144.989 121.442L144.987 121.445Z" fill="#8C6239"/>
<path d="M127.253 129.359C127.983 131.78 128.746 133.977 129.507 135.59C130.617 135.46 131.746 135.224 132.888 134.898C132.29 133.263 131.689 131.17 131.121 128.947C129.815 129.258 128.523 129.409 127.253 129.359Z" fill="#8C6239"/>
<path d="M155.359 101.175C152.061 101.998 149.196 102.664 148.818 102.746C148.818 102.756 148.821 102.768 148.823 102.775C149.017 102.766 149.342 102.737 148.826 102.787C149.141 104.831 149.332 106.95 149.448 108.674C151.794 108.066 154.043 107.394 155.976 106.703C155.925 106.094 155.868 105.471 155.807 104.834C155.675 103.524 155.526 102.305 155.362 101.168L155.359 101.175Z" fill="#8C6239"/>
<path d="M133.379 81.4129C135.151 80.9324 136.276 81.0936 135.227 79.8852C134.179 78.6768 134.664 79.3222 131.844 78.5942C131.01 78.38 129.186 77.7477 127.098 76.9333C126.373 77.2694 125.489 77.7072 124.45 78.2661C128.74 80.1059 132.589 81.6253 133.377 81.4104L133.379 81.4129Z" fill="#8C6239"/>
<path d="M107.699 118.218C107.087 115.223 107.062 110.351 107.505 107.02C106.962 104.957 106.412 103.473 105.869 102.876C105.764 102.795 105.658 102.713 105.556 102.63C105.66 102.677 105.764 102.762 105.869 102.876C106.577 103.434 107.315 103.944 108.067 104.42C108.108 104.311 108.146 104.204 108.19 104.112L109.148 102.004C109.232 101.832 110.144 100.037 111.567 97.8031C109.284 96.0285 107.338 94.3925 106.867 93.7471C104.73 97.0247 103.327 99.7722 103.206 100.005L101.871 102.951C101.329 104.148 100.93 106.863 100.757 110.007C103.563 116.32 106.153 123.317 106.76 128.166C108.24 129.355 109.843 130.48 111.328 131.451C111.019 128.512 110.635 125.281 110.2 122.08C108.933 120.823 107.957 119.493 107.699 118.223L107.699 118.218Z" fill="#8C6239"/>
<path d="M115.857 92.1691C116.673 91.3094 117.532 90.5322 118.417 89.915C119.371 89.247 120.265 88.654 121.093 88.1265C118.227 87.4494 115.414 86.7627 112.239 86.7543C110.534 88.556 108.948 90.6561 107.598 92.6473C108.979 91.9458 111.955 91.4061 115.859 92.1716L115.857 92.1691Z" fill="#8C6239"/>
<path d="M146.962 96.424C147.316 96.982 147.62 97.7072 147.888 98.5414C149.767 97.1132 151.843 95.5761 153.747 94.0946C153.492 93.4131 153.219 92.8407 152.935 92.3919C152.515 91.7248 152.078 91.094 151.639 90.4802C149.87 91.797 147.86 93.2881 145.828 94.7719C146.214 95.2984 146.595 95.8443 146.962 96.424Z" fill="#8C6239"/>
<path d="M128.479 94.1806L128.584 94.1444L128.693 94.1615C128.809 94.181 130.041 94.3908 131.719 95.1006C131.906 95.0014 132.09 94.8949 132.269 94.7691C135.968 92.1962 134.518 89.7825 128.319 89.3708C126.452 89.2476 124.718 88.9329 123.036 88.5674C121.907 89.2547 120.632 90.0775 119.22 91.0626C118.622 91.4813 118.031 91.9849 117.457 92.5443C120.692 93.4254 123.549 94.66 126.061 95.3077C127.551 94.502 128.419 94.1975 128.477 94.1782L128.479 94.1806Z" fill="#8C6239"/>
<path d="M116.272 106.072L116.843 104.817C116.889 104.723 117.365 103.79 118.115 102.588C116.628 101.591 114.612 100.126 112.693 98.6626C111.314 100.838 110.438 102.568 110.416 102.604L109.471 104.69C109.413 104.821 109.355 104.976 109.301 105.156C111.514 106.409 113.786 107.355 115.826 108.13C115.927 107.248 116.079 106.509 116.274 106.075L116.272 106.072Z" fill="#8C6239"/>
<path d="M138.932 115.53C138.704 115.826 138.455 116.114 138.174 116.395C137.777 116.792 137.324 117.167 136.81 117.501C136.709 117.569 136.605 117.634 136.5 117.699C138.756 118.856 141.09 120.172 142.953 121.382C143.953 120.576 144.772 119.66 145.44 118.725C144.734 118.518 144.222 118.341 143.965 118.21C142.905 117.663 140.962 116.64 138.932 115.535L138.932 115.53Z" fill="#8C6239"/>
<path d="M145.779 97.1742C145.43 96.6211 145.068 96.0995 144.696 95.5973C142.451 97.2263 140.235 98.8069 138.348 100.082C138.697 100.519 139.037 100.985 139.358 101.49C140.615 103.45 140.874 108.929 140.924 110.538C143.195 110.141 145.655 109.622 148.064 109.034C147.955 107.298 147.769 105.116 147.454 103.043C144.989 103.721 139.922 105.653 142.983 102.592C143.864 101.71 145.184 100.628 146.708 99.4492C146.445 98.5325 146.139 97.7419 145.777 97.1767L145.779 97.1742Z" fill="#8C6239"/>
<path d="M127.29 121.095C126.417 121.017 125.641 120.919 124.974 120.819C125.534 123.122 126.165 125.598 126.834 127.938C128.114 128.051 129.435 127.91 130.785 127.589C130.24 125.334 129.74 123.023 129.333 120.984C128.642 121.107 127.961 121.152 127.287 121.093L127.29 121.095Z" fill="#8C6239"/>
<path d="M109.073 117.941C109.175 118.445 109.45 118.981 109.843 119.534C109.457 116.896 109.042 114.341 108.608 112.042C108.601 114.161 108.742 116.316 109.073 117.941Z" fill="#8C6239"/>
<path d="M96.1684 154.741C95.5155 156.243 94.9159 157.687 94.3913 159.032C96.1938 160.161 97.8579 161.152 99.2769 161.961C99.8184 160.531 100.386 159.08 100.955 157.653C99.749 156.955 98.0824 155.962 96.166 154.743L96.1684 154.741Z" fill="#8C6239"/>
<path d="M166.258 146.503C165.831 146.779 165.405 147.055 164.976 147.328C166.38 147.701 168.148 148.2 170.129 148.776C171.459 147.903 172.699 146.968 173.855 145.978C172.128 145.448 170.523 144.927 169.128 144.433C168.225 145.152 167.273 145.847 166.26 146.5L166.258 146.503Z" fill="#8C6239"/>
<path d="M157.866 151.711C157.836 153.148 157.811 154.712 157.803 156.321C158.724 155.804 159.645 155.271 160.56 154.729C160.587 152.935 160.661 151.289 160.79 149.956C159.816 150.552 158.842 151.137 157.866 151.711Z" fill="#8C6239"/>
<path d="M114.209 161.066C114.651 162.075 115.091 162.936 115.526 163.564C115.948 164.176 116.444 164.908 116.99 165.716C118.84 165.953 120.813 166.179 122.898 166.38C122.083 165.075 121.184 163.537 120.261 161.873C118.062 161.62 116.037 161.344 114.212 161.063L114.209 161.066Z" fill="#8C6239"/>
<path d="M180.808 129.142C181.965 129.863 183.283 130.745 184.668 131.699C185.12 130.776 185.529 129.872 185.899 129.002C183.895 127.638 182.5 126.562 182.286 126.135C181.914 125.396 184.437 124.693 187.658 124.243C188.195 122.557 188.54 121.178 188.745 120.259C186.922 120.291 185.247 120.388 183.822 120.581C183.327 122.58 182.409 125.663 180.811 129.145L180.808 129.142Z" fill="#8C6239"/>
<path d="M78.0778 144.932C77.9667 145.363 77.8146 145.923 77.6432 146.551C78.6406 147.485 79.701 148.415 80.805 149.335C81.5712 147.214 81.8401 144.897 81.0553 143.245C81.0237 143.18 80.9897 143.102 80.9532 143.022C77.723 139.792 75.2563 136.395 74.5982 133.19C73.8646 129.608 73.4522 125.002 73.3281 120.224C72.5566 117.462 72.084 115.386 72.1682 114.744C72.4855 112.33 70.8678 102.832 72.8771 100.337C74.8864 97.8426 78.4966 87.3062 78.012 85.3735C78.469 86.4892 79.0277 87.4449 79.6564 88.2771C81.0379 85.7259 83.4767 81.4426 86.6158 76.7892C85.5019 75.7577 84.4876 74.7917 83.6576 73.9617C83.2582 74.5504 82.8613 75.1511 82.4596 75.7616C77.7379 82.9684 74.6029 89.1273 74.3513 89.6264L71.4759 95.9722C69.6743 99.9435 68.606 111.671 68.9332 122.585C72.6979 129.052 78.6257 142.816 78.0826 144.932L78.0778 144.932Z" fill="#8C6239"/>
<path d="M182.308 93.2146C183.759 92.5544 185.228 91.9112 186.655 91.3091C186.516 90.3902 186.372 89.4955 186.22 88.6323C184.876 89.3363 183.417 90.0668 181.917 90.7948C182.054 91.5755 182.183 92.3829 182.308 93.2146Z" fill="#8C6239"/>
<path d="M94.2241 66.8414C92.3509 67.4478 89.9663 68.2257 87.8184 68.1749C86.7436 69.5846 85.6592 71.0718 84.5749 72.6318C85.7488 73.1519 87.0488 73.7012 88.4311 74.1779C90.2029 71.6975 92.1516 69.1857 94.2241 66.8414Z" fill="#8C6239"/>
<path d="M160.666 57.4166C161.566 58.1279 162.467 58.8828 163.374 59.6741C166.042 58.6662 167.891 58.1615 168.957 57.6682C168.244 56.9789 167.533 56.3163 166.819 55.6755C166.308 55.818 165.751 56.0113 165.147 56.2555C164.265 56.6133 162.61 57.026 160.669 57.4142L160.666 57.4166Z" fill="#8C6239"/>
<path d="M150.722 50.8336C152.488 49.5725 154.232 48.4884 155.798 47.8744C155.943 47.8164 156.086 47.7559 156.229 47.6955C155.438 47.2 154.655 46.7265 153.888 46.2844C152.061 47.2521 150.067 48.3384 148.139 49.4998C148.971 49.9056 149.832 50.3502 150.72 50.8312L150.722 50.8336Z" fill="#8C6239"/>
<path d="M70.737 56.8761C69.1286 57.9992 69.2704 56.8915 67.3504 59.0542C65.5054 61.1321 61.9897 62.7888 64.0234 66.9777C66.0489 63.763 68.3651 60.2868 70.9091 56.7963C70.8436 56.8132 70.7879 56.8398 70.737 56.8761Z" fill="#8C6239"/>
<path d="M204.814 139.36C204.645 139.719 204.468 140.08 204.289 140.443C205.695 140.125 206.359 139.728 204.814 139.36Z" fill="#8C6239"/>
<path d="M193.531 155.939C194.336 156.192 194.935 156.384 195.272 156.489C195.677 156.618 196.101 156.718 196.511 156.783C197.109 156.151 197.686 155.507 198.245 154.861C197.692 154.448 196.894 153.969 195.804 153.418C195.081 154.268 194.323 155.108 193.531 155.939Z" fill="#8C6239"/>
<path d="M207.361 85.6496C207.471 86.3794 207.583 87.1214 207.688 87.8754C208.813 87.9348 209.839 88.0257 210.734 88.16C210.638 87.4399 210.538 86.7343 210.44 86.036C210.249 86.0189 210.052 86.0065 209.844 86.0014C209.112 85.9861 208.273 85.8494 207.359 85.6472L207.361 85.6496Z" fill="#8C6239"/>
<path d="M213.352 120.989C212.6 121.071 211.577 121.089 210.36 121.068C210.378 121.691 210.385 122.043 210.385 122.062L210.391 122.285L210.357 122.503C210.321 122.729 210.116 123.996 209.621 125.991C210.664 126.133 211.709 126.262 212.732 126.38C213.128 124.819 213.34 123.728 213.422 123.283C213.412 122.899 213.392 122.109 213.352 120.989Z" fill="#8C6239"/>
<path d="M48.1969 131.701C47.2404 132.706 46.3179 133.716 45.4487 134.712C45.5324 135.899 45.6307 137.068 45.7459 138.21C46.6077 137.067 47.5179 135.899 48.4378 134.785C48.347 133.774 48.2683 132.746 48.1993 131.699L48.1969 131.701Z" fill="#8C6239"/>
<path d="M54.9344 154.276C55.4093 156.218 56.0229 158.667 56.6898 161.044C58.0148 162.315 59.4295 163.58 60.9024 164.835C60.6898 163.29 60.3581 161.53 59.9828 159.755C58.0269 157.872 56.3449 156.045 54.9344 154.276Z" fill="#8C6239"/>
<path d="M50.9931 148.058C50.4057 149.607 49.8522 151.097 49.3737 152.459C50.1751 153.735 51.1438 155.038 52.2483 156.35C52.6391 154.605 52.9938 153.095 53.2932 152.063C52.3511 150.69 51.586 149.353 50.9931 148.058Z" fill="#8C6239"/>
<path d="M185.878 151.749C185.42 152.206 184.943 152.659 184.461 153.107C185.696 153.489 186.884 153.859 187.995 154.204C188.992 153.26 189.934 152.284 190.825 151.296C189.756 150.905 188.616 150.511 187.428 150.121C186.926 150.671 186.413 151.214 185.878 151.749Z" fill="#8C6239"/>
<path d="M195.284 138.984C196.475 139.734 197.514 140.331 198.316 140.684C198.929 139.577 199.49 138.481 200.007 137.411C199.047 136.92 197.999 136.356 196.907 135.749C196.414 136.805 195.877 137.886 195.284 138.984Z" fill="#8C6239"/>
<path d="M56.6081 128.804C56.5069 127.153 56.4347 125.463 56.3892 123.756C55.3285 124.71 54.212 125.744 53.0739 126.829C53.1065 127.845 53.1512 128.853 53.2057 129.852C54.2762 129.005 55.2405 128.492 56.0114 128.493C56.2781 128.493 56.4746 128.603 56.6105 128.806L56.6081 128.804Z" fill="#8C6239"/>
<path d="M198.266 83.7075C198.507 85.0192 198.739 86.394 198.959 87.8197C200.139 87.804 201.334 87.7884 202.515 87.7824C202.342 86.5822 202.161 85.4233 201.975 84.2934C200.748 84.0157 199.497 83.7913 198.268 83.7051L198.266 83.7075Z" fill="#8C6239"/>
<path d="M93.464 173.215C93.9174 175.543 94.4642 176.772 95.2566 174.218L95.1668 174.167C95.0795 174.119 94.4658 173.786 93.4664 173.213L93.464 173.215Z" fill="#8C6239"/>
<path d="M58.514 142.367C58.3194 141.795 58.1636 141.232 58.0491 140.677C57.4641 137.83 57.0362 134.492 56.7535 130.906C56.46 132.976 55.4163 136.175 54.1377 139.696C54.3258 140.993 54.5405 142.234 54.7818 143.405C55.1572 145.243 56.1145 147.198 57.5009 149.21C57.4195 147.956 57.8313 145.438 58.5164 142.365L58.514 142.367Z" fill="#8C6239"/>
<path d="M201.705 120.681L201.71 120.879L201.679 121.076C201.648 121.291 201.433 122.583 200.922 124.59C201.962 124.787 203.186 125.005 204.518 125.227C204.962 123.54 205.193 122.367 205.273 121.914C205.268 121.7 205.26 121.344 205.242 120.866C204.113 120.807 202.925 120.738 201.705 120.671L201.705 120.681Z" fill="#8C6239"/>
<path d="M77.8471 61.0997C77.0536 60.437 76.2651 59.7986 75.5105 59.2232C72.3129 63.5711 69.4547 67.9485 67.0808 71.8077C67.5014 72.9063 67.8278 74.2836 68.0696 75.8718C70.5957 71.6031 73.945 66.322 77.8447 61.0973L77.8471 61.0997Z" fill="#8C6239"/>
<path d="M158.337 169.728C158.518 171.066 158.754 172.082 159.055 172.621C159.835 172.224 160.616 171.818 161.398 171.404C161.266 170.672 161.139 169.605 161.026 168.32C160.132 168.801 159.236 169.271 158.337 169.728Z" fill="#8C6239"/>
<path d="M219.068 123.451L219.073 123.698L219.035 123.941C219.015 124.052 218.849 125.102 218.442 126.84C219.486 126.872 220.403 126.859 221.13 126.782C221.366 125.749 221.509 125.015 221.571 124.656C221.564 124.348 221.551 123.798 221.523 123.044C220.82 122.476 219.951 121.942 219.01 121.529C219.05 122.736 219.063 123.422 219.063 123.451L219.068 123.451Z" fill="#8C6239"/>
<path d="M40.721 145.23C40.7815 145.145 40.8468 145.051 40.9195 144.949C40.7412 143.821 40.5775 142.65 40.4307 141.443C39.9251 142.347 39.5599 143.173 39.3813 143.895C38.9831 145.487 38.7443 146.542 38.6383 147.181C38.6798 147.441 38.7213 147.7 38.7628 147.955C39.0777 147.723 39.7722 146.552 40.7186 145.232L40.721 145.23Z" fill="#8C6239"/>
<path d="M50.0191 166.176C50.2653 165.182 50.5114 164.14 50.7527 163.083C49.6169 161.904 48.5829 160.744 47.6507 159.608C47.5477 160.755 47.4134 162.073 47.2767 163.428C48.1432 164.343 49.0606 165.261 50.024 166.176L50.0191 166.176Z" fill="#8C6239"/>
<path d="M38.7652 147.952C38.7237 147.698 38.6822 147.438 38.6407 147.179C38.5252 147.892 38.5763 148.093 38.7652 147.952Z" fill="#D6CFAE"/>
<path d="M47.2719 163.428C46.9697 166.415 46.6629 169.58 46.6893 171.525C47.0897 171.896 47.4926 172.27 47.9099 172.643C48.5705 171.536 49.2999 169.074 50.0167 166.178C49.0581 165.263 48.1408 164.346 47.2695 163.431L47.2719 163.428Z" fill="#D6CFAE"/>
<path d="M221.13 126.782C221.789 126.715 222.298 126.599 222.606 126.422C223.805 125.733 223.079 124.304 221.526 123.047C221.548 123.801 221.564 124.353 221.574 124.659C221.509 125.015 221.371 125.749 221.132 126.784L221.13 126.782Z" fill="#D6CFAE"/>
<path d="M212.344 88.5012C215.183 89.3503 214.358 86.3895 210.443 86.0385C210.54 86.7368 210.641 87.4423 210.736 88.1624C211.337 88.2552 211.885 88.3625 212.344 88.5012Z" fill="#D6CFAE"/>
<path d="M214.149 120.857C213.933 120.912 213.667 120.956 213.352 120.989C213.392 122.109 213.412 122.899 213.422 123.283C213.34 123.728 213.128 124.819 212.732 126.38C214.807 126.615 216.786 126.782 218.442 126.835C218.847 125.099 219.018 124.05 219.035 123.936L219.073 123.694L219.068 123.446C219.068 123.417 219.053 122.729 219.015 121.524C217.429 120.824 215.644 120.468 214.151 120.854L214.149 120.857Z" fill="#D6CFAE"/>
<path d="M49.3737 152.459C48.4771 155.015 47.8395 157.124 47.7535 158.34C47.7273 158.731 47.689 159.157 47.6507 159.608C48.5853 160.746 49.6169 161.904 50.7527 163.083C51.281 160.773 51.7875 158.398 52.2483 156.35C51.1438 155.038 50.1775 153.737 49.3737 152.459Z" fill="#D6CFAE"/>
<path d="M45.4463 134.714C43.3278 137.138 41.534 139.471 40.4283 141.44C40.5751 142.648 40.7364 143.821 40.917 144.946C41.8126 143.677 43.6205 141.025 45.7411 138.21C45.6283 137.066 45.53 135.897 45.4439 134.712L45.4463 134.714Z" fill="#D6CFAE"/>
<path d="M60.6412 169.785C61.2807 169.359 61.2543 167.4 60.9024 164.84C59.4271 163.587 58.0148 162.32 56.6898 161.048C58.0503 165.906 59.6189 170.467 60.6412 169.785Z" fill="#D6CFAE"/>
<path d="M198.247 154.863C197.69 155.512 197.112 156.154 196.514 156.786C198.686 157.137 200.559 156.584 198.247 154.863Z" fill="#D6CFAE"/>
<path d="M53.2033 129.85C51.733 131.014 50.0696 132.814 48.4354 134.788C48.7496 138.308 49.192 141.583 49.7745 144.423C50.0134 145.596 50.422 146.809 50.9931 148.058C52.0252 145.327 53.1517 142.419 54.1402 139.698C53.698 136.665 53.3889 133.324 53.2033 129.85Z" fill="#D6CFAE"/>
<path d="M53.2884 152.063C53.7886 152.791 54.3372 153.528 54.932 154.278C54.5448 152.7 54.2525 151.458 54.0992 150.864C53.9385 150.238 53.653 150.791 53.2884 152.063Z" fill="#D6CFAE"/>
<path d="M53.2032 129.85C53.1488 128.851 53.1065 127.845 53.0714 126.827C51.4441 128.381 49.7805 130.035 48.1969 131.701C48.2635 132.746 48.3446 133.777 48.4354 134.788C50.0696 132.814 51.733 131.014 53.2032 129.85Z" fill="#D6CFAE"/>
<path d="M202.513 87.7848C204.331 87.7771 206.103 87.7961 207.691 87.8778C207.583 87.1214 207.476 86.3794 207.364 85.652C205.741 85.2939 203.889 84.7343 201.973 84.3006C202.158 85.4257 202.339 86.5895 202.513 87.7897L202.513 87.7848Z" fill="#D6CFAE"/>
<path d="M67.0833 71.8101C69.4547 67.9485 72.3153 63.5736 75.5129 59.2256C73.4676 57.6695 71.6943 56.5887 70.9115 56.7988C68.3675 60.2893 66.0489 63.7679 64.0259 66.9801C64.4389 67.8339 65.0775 68.7873 66.0145 69.8744C66.4247 70.3524 66.7794 71.0074 67.0881 71.8101L67.0833 71.8101Z" fill="#D6CFAE"/>
<path d="M205.268 121.914C205.186 122.364 204.954 123.537 204.513 125.227C206.108 125.49 207.856 125.756 209.616 125.996C210.111 124.001 210.316 122.734 210.352 122.508L210.386 122.29L210.381 122.067C210.381 122.067 210.373 121.696 210.355 121.073C208.893 121.05 207.148 120.97 205.235 120.869C205.25 121.349 205.26 121.703 205.265 121.916L205.268 121.914Z" fill="#D6CFAE"/>
<path d="M57.4985 149.212C56.1121 147.201 55.1548 145.246 54.7794 143.408C54.5405 142.239 54.3258 140.998 54.1353 139.698C53.1468 142.419 52.0203 145.327 50.9882 148.058C51.5787 149.356 52.3463 150.69 53.2884 152.063C53.6554 150.788 53.9385 150.238 54.0992 150.864C54.2525 151.458 54.5472 152.702 54.932 154.278C56.3424 156.047 58.0244 157.874 59.9804 159.758C59.0983 155.597 57.9736 151.358 57.5596 149.66C57.528 149.537 57.5084 149.386 57.4985 149.212Z" fill="#D6CFAE"/>
<path d="M200.007 137.411C199.49 138.482 198.929 139.577 198.317 140.684C198.867 140.924 199.306 141.058 199.604 141.042C201.022 140.968 202.978 140.74 204.289 140.443C204.468 140.08 204.645 139.719 204.814 139.36C204.698 139.331 204.572 139.306 204.431 139.277C203.561 139.109 201.962 138.407 200.007 137.411Z" fill="#D6CFAE"/>
<path d="M190.823 151.294C189.932 152.287 188.99 153.258 187.992 154.202C190.247 154.903 192.18 155.513 193.531 155.939C194.325 155.111 195.083 154.27 195.805 153.418C195.312 153.168 194.762 152.903 194.141 152.626C193.156 152.183 192.033 151.739 190.823 151.294Z" fill="#D6CFAE"/>
<path d="M159.317 172.951C161.574 174.723 162.539 175.209 161.571 172.148C161.513 171.964 161.454 171.712 161.401 171.401C160.62 171.813 159.838 172.222 159.058 172.618C159.14 172.764 159.225 172.878 159.317 172.951Z" fill="#D6CFAE"/>
<path d="M56.6081 128.804C56.6525 129.512 56.7018 130.215 56.7559 130.908C56.8954 129.919 56.8655 129.192 56.6081 128.804Z" fill="#D6CFAE"/>
<path d="M96.5364 169.696C95.3793 169.052 94.0306 168.275 92.5484 167.384C92.8462 169.212 93.13 171.506 93.4664 173.213C94.4682 173.783 95.0795 174.119 95.1668 174.167L95.2566 174.218C95.358 173.889 95.4643 173.501 95.5728 173.043C95.7948 172.117 96.1257 170.98 96.534 169.698L96.5364 169.696Z" fill="#D6CFAE"/>
<path d="M179.289 151.518C181.047 152.056 182.795 152.594 184.456 153.107C184.941 152.662 185.415 152.206 185.873 151.749C186.408 151.214 186.919 150.669 187.423 150.121C185.846 149.606 184.195 149.092 182.522 148.586C181.51 149.598 180.434 150.582 179.286 151.521L179.289 151.518Z" fill="#D6CFAE"/>
<path d="M60.9255 119.875C59.6757 120.873 58.1063 122.209 56.3868 123.754C56.4323 125.461 56.5045 127.15 56.6057 128.801C56.8631 129.19 56.893 129.917 56.7535 130.906C57.0362 134.492 57.4641 137.83 58.0491 140.677C58.1612 141.23 58.3194 141.795 58.514 142.367C59.2473 139.081 60.2951 135.164 61.3941 131.493C61.0724 127.8 60.9226 123.824 60.9231 119.873L60.9255 119.875Z" fill="#D6CFAE"/>
<path d="M197.119 120.545C197.039 120.974 196.812 122.132 196.366 123.797C197.156 123.846 197.847 123.932 198.378 124.061C198.965 124.202 199.843 124.388 200.919 124.592C201.433 122.583 201.645 121.294 201.677 121.078L201.708 120.882L201.703 120.683L201.703 120.673C200.205 120.589 198.663 120.505 197.116 120.435C197.116 120.474 197.118 120.515 197.119 120.545Z" fill="#D6CFAE"/>
<path d="M191.405 136.397C192.79 137.352 194.11 138.245 195.284 138.984C195.877 137.886 196.414 136.805 196.907 135.749C195.598 135.02 194.229 134.228 192.876 133.417C192.428 134.389 191.937 135.385 191.403 136.395L191.405 136.397Z" fill="#D6CFAE"/>
<path d="M193.709 84.2649C193.958 85.5936 194.192 86.9854 194.416 88.4402C195.703 88.0707 196.777 87.8513 197.531 87.84C198.001 87.8356 198.476 87.8265 198.954 87.8197C198.732 86.3916 198.502 85.0193 198.261 83.7075C196.673 83.5966 195.122 83.721 193.706 84.2625L193.709 84.2649Z" fill="#D6CFAE"/>
<path d="M157.941 164.77C158.026 166.646 158.156 168.356 158.339 169.725C159.236 169.266 160.132 168.796 161.029 168.317C160.901 166.858 160.788 165.122 160.706 163.272C159.785 163.785 158.862 164.281 157.941 164.77Z" fill="#D6CFAE"/>
<path d="M76.3311 71.3137C77.9986 68.7677 79.6686 66.3792 81.3267 64.1435C80.2493 63.1678 79.0482 62.1071 77.8495 61.1021C73.9499 66.3269 70.6006 71.6079 68.0744 75.8766C68.4382 78.26 68.6135 81.1184 68.6291 84.2189C70.1943 81.3383 72.8897 76.5753 76.3335 71.3161L76.3311 71.3137Z" fill="#D6CFAE"/>
<path d="M123.617 174.208C123.462 174.194 123.307 174.179 123.152 174.164C125.497 176.945 127.695 178.799 128.899 177.741C130.228 176.572 130.184 175.481 129.39 174.251C127.441 174.38 125.513 174.375 123.615 174.206L123.617 174.208Z" fill="#D6CFAE"/>
<path d="M192.043 123.819C190.567 123.902 189.047 124.048 187.656 124.241C187.209 125.644 186.634 127.258 185.896 129C186.925 129.699 188.111 130.474 189.383 131.275" fill="#D6CFAE"/>
<path d="M81.4583 71.2927C81.347 71.5156 82.2257 72.5347 83.6576 73.9617C83.9625 73.5111 84.2699 73.0679 84.5749 72.627C83.3961 72.1069 82.3411 71.6233 81.4559 71.2902L81.4583 71.2927Z" fill="#D6CFAE"/>
<path d="M170.125 148.776C171.667 149.224 173.333 149.718 175.052 150.236C176.241 149.314 177.353 148.348 178.394 147.35C176.83 146.885 175.298 146.428 173.852 145.98C172.697 146.966 171.457 147.905 170.127 148.779L170.125 148.776Z" fill="#D6CFAE"/>
<path d="M184.668 131.699C185.772 132.459 186.919 133.263 188.072 134.071C188.553 133.119 188.988 132.184 189.385 131.278C188.114 130.476 186.925 129.699 185.899 129.002C185.531 129.875 185.12 130.776 184.668 131.699Z" fill="#D6CFAE"/>
<path d="M160.56 154.729C159.642 155.269 158.722 155.801 157.803 156.321C157.795 157.849 157.802 159.41 157.828 160.942C158.746 160.441 159.664 159.931 160.578 159.406C160.547 157.81 160.538 156.218 160.56 154.729Z" fill="#D6CFAE"/>
<path d="M188.743 120.257C188.538 121.175 188.19 122.552 187.656 124.241C189.047 124.048 190.565 123.9 192.043 123.819C192.49 122.212 192.753 120.983 192.888 120.28C191.455 120.247 190.064 120.236 188.745 120.259L188.743 120.257Z" fill="#D6CFAE"/>
<path d="M94.3913 159.032C93.8329 160.464 93.3641 161.787 93.0211 162.931C95.1001 164.216 96.7981 165.202 97.8606 165.804C98.3004 164.568 98.779 163.274 99.2769 161.961C97.8579 161.152 96.1938 160.161 94.3913 159.032Z" fill="#D6CFAE"/>
<path d="M77.6456 146.553C77.2835 147.9 76.8417 149.575 76.5597 151.041C77.2804 151.675 78.0399 152.318 78.8333 152.966C79.6031 151.998 80.3096 150.709 80.8075 149.337C79.7059 148.419 78.643 147.487 77.6456 146.553Z" fill="#D6CFAE"/>
<path d="M122.896 166.382C120.811 166.181 118.837 165.956 116.988 165.719C117.901 167.067 118.962 168.623 120.074 170.166C121.276 170.298 122.522 170.42 123.805 170.536C124.576 170.604 125.352 170.639 126.13 170.657C125.899 170.427 125.669 170.186 125.431 169.939C124.802 169.281 123.916 168.017 122.896 166.387L122.896 166.382Z" fill="#D6CFAE"/>
<path d="M64.8472 121.506C65.4252 120.176 65.9067 119.34 66.2193 119.246C66.6797 119.106 67.6872 120.448 68.9308 122.587C68.606 111.671 69.6743 99.9484 71.4735 95.9747L74.3489 89.6288C74.6005 89.1297 77.7355 82.9708 82.4571 75.764C82.8565 75.156 83.2558 74.5528 83.6551 73.9641C82.2257 72.5347 81.3446 71.518 81.4559 71.2951C82.3411 71.6282 83.3961 72.1117 84.5749 72.6318C85.6592 71.0718 86.7412 69.5821 87.8184 68.1749C86.4826 68.1419 85.2386 67.789 84.2679 66.8716C84.1636 66.7721 84.0519 66.6653 83.933 66.556C76.3225 76.7099 71.0493 87.1622 70.7106 87.8406L68.2778 93.2051C67.7066 100.615 66.4785 108.134 64.9084 113.223C64.8072 115.945 64.7836 118.745 64.8472 121.506Z" fill="#D6CFAE"/>
<path d="M156.229 47.6954C157.729 47.0304 159.003 46.0622 159.826 45.1952C159.244 44.8115 158.666 44.4424 158.092 44.0854C156.909 44.7096 155.46 45.4546 153.888 46.2844C154.655 46.7264 155.436 47.1976 156.229 47.6954Z" fill="#D6CFAE"/>
<path d="M170.054 56.5034C170.053 55.3494 168.821 55.1153 166.817 55.678C167.53 56.3188 168.241 56.9814 168.955 57.6706C169.691 57.332 170.055 56.9979 170.054 56.5034Z" fill="#D6CFAE"/>
<path d="M186.655 91.3091C187.99 90.7457 189.291 90.226 190.515 89.7643C190.339 88.649 190.154 87.5773 189.963 86.5443C188.895 87.1953 187.621 87.9017 186.223 88.6347C186.372 89.5003 186.516 90.3902 186.657 91.3115L186.655 91.3091Z" fill="#D6CFAE"/>
<path d="M92.1 75.1492C90.8343 74.9296 89.6 74.5816 88.4311 74.1779C87.8042 75.0572 87.1991 75.9292 86.6158 76.7892C87.4554 77.5659 88.3509 78.379 89.2681 79.1994C90.1563 77.8694 91.1051 76.5081 92.1 75.1492Z" fill="#D6CFAE"/>
<path d="M160.79 149.956C162.193 149.097 163.588 148.221 164.974 147.331C163.291 146.883 162.134 146.622 161.78 146.636C161.301 146.655 160.98 147.952 160.788 149.954L160.79 149.956Z" fill="#D6CFAE"/>
<path d="M164.337 143.546C162.239 144.906 160.119 146.244 157.992 147.531C157.948 148.692 157.901 150.123 157.866 151.711C158.842 151.137 159.816 150.552 160.79 149.956C160.982 147.954 161.3 146.655 161.783 146.639C162.137 146.624 163.291 146.888 164.976 147.333C165.405 147.06 165.831 146.784 166.258 146.508C167.268 145.852 168.222 145.16 169.126 144.441C167.562 143.884 166.269 143.351 165.367 142.851C165.03 143.091 164.691 143.323 164.337 143.551L164.337 143.546Z" fill="#D6CFAE"/>
<path d="M112.743 157.261C113.229 158.643 113.721 159.948 114.209 161.066C116.035 161.347 118.059 161.623 120.258 161.875C119.583 160.657 118.896 159.379 118.223 158.076C116.213 157.815 114.375 157.536 112.743 157.261Z" fill="#D6CFAE"/>
<path d="M179.782 121.868C179.294 123.448 178.603 125.373 177.655 127.456C178.433 127.741 179.522 128.341 180.808 129.142C182.407 125.66 183.327 122.58 183.819 120.578C181.977 120.828 180.557 121.234 179.782 121.868Z" fill="#D6CFAE"/>
<path d="M182.669 113.016C182.913 112.524 181.926 111.784 180.519 110.934C180.573 111.908 180.62 112.808 180.66 113.617C181.63 113.672 182.376 113.605 182.672 113.018L182.669 113.016Z" fill="#D6CFAE"/>
<path d="M97.6121 151.491C97.1139 152.591 96.6278 153.679 96.1684 154.741C98.0849 155.96 99.749 156.951 100.957 157.65C101.404 156.533 101.852 155.431 102.292 154.364C100.906 153.556 99.3126 152.587 97.6121 151.496L97.6121 151.491Z" fill="#D6CFAE"/>
<path d="M74.6006 133.192C75.2563 136.4 77.7279 139.792 80.9556 143.025C79.6385 140.08 75.4091 127.661 73.333 120.224C73.4571 125.002 73.8694 129.608 74.6031 133.19L74.6006 133.192Z" fill="#D6CFAE"/>
<path d="M104.655 61.9778C105.886 61.121 107.068 60.3174 108.211 59.5526C103.264 62.4999 97.8448 65.832 95.9375 66.322C95.4479 66.4476 94.8639 66.6336 94.2217 66.8438C92.1492 69.1881 90.2004 71.6999 88.4287 74.1803C89.6024 74.584 90.8343 74.9296 92.0976 75.1516C95.7865 70.1182 100.137 65.1218 104.653 61.9802L104.655 61.9778Z" fill="#D6CFAE"/>
<path d="M82.2871 90.84C83.4604 88.6474 85.9548 84.1532 89.2681 79.1994C88.3509 78.379 87.4554 77.5659 86.6158 76.7892C83.4743 81.4402 81.0378 85.7259 79.6564 88.2771C80.4406 89.318 81.3409 90.1553 82.2871 90.84Z" fill="#D6CFAE"/>
<path d="M178.979 94.7624C180.064 94.2448 181.181 93.7249 182.31 93.2122C182.186 92.3805 182.056 91.5731 181.92 90.7924C180.829 91.3197 179.717 91.8493 178.612 92.3669C178.737 93.1404 178.859 93.9405 178.976 94.76L178.979 94.7624Z" fill="#D6CFAE"/>
<path d="M145.577 52.1733C146.239 52.4819 146.923 52.8172 147.627 53.1768C148.646 52.3707 149.688 51.5718 150.722 50.8336C149.837 50.3502 148.973 49.908 148.141 49.5023C146.94 50.2282 145.76 50.9857 144.663 51.7578C144.963 51.8939 145.269 52.03 145.577 52.1733Z" fill="#D6CFAE"/>
<path d="M159.715 61.1779C159.914 61.0957 160.115 61.0063 160.319 60.9192C161.436 60.4283 162.451 60.0246 163.369 59.6741C162.464 58.8804 161.562 58.1279 160.661 57.4166C159.176 57.7131 157.52 57.9998 155.904 58.2332C157.158 59.1339 158.432 60.1123 159.715 61.1779Z" fill="#D6CFAE"/>
<path d="M109.885 148.78C110.245 149.799 110.617 150.917 110.999 152.073C112.272 152.329 113.839 152.617 115.659 152.908C115.125 151.768 114.624 150.662 114.179 149.621C112.388 149.306 110.938 149.009 109.883 148.778L109.885 148.78Z" fill="#D6CFAE"/>
<path d="M171.335 98.6109C172.151 98.1682 173.108 97.6674 174.157 97.1328C174.035 96.2551 173.91 95.4089 173.779 94.5894C172.78 95.0392 171.831 95.4648 170.951 95.859C171.085 96.7391 171.212 97.6605 171.335 98.6109Z" fill="#D6CFAE"/>
<path d="M170.702 122.935C169.996 124.699 169.055 126.673 167.828 128.672C169.067 128.768 170.253 128.752 171.344 128.657C172.447 126.655 173.286 124.724 173.912 123.021C172.916 123.032 171.837 122.999 170.7 122.937L170.702 122.935Z" fill="#D6CFAE"/>
<path d="M95.036 84.1923C94.3008 83.5782 93.5243 82.9179 92.7235 82.2286C89.4684 87.1049 87.158 91.4248 86.3742 92.9415C87.3952 93.3135 88.3822 93.5982 89.2819 93.8537C90.1915 92.1384 92.2576 88.388 95.0384 84.1948L95.036 84.1923Z" fill="#D6CFAE"/>
<path d="M103.758 73.1451C105.095 71.7939 106.475 70.5688 107.878 69.5497C107.376 69.634 107.054 69.6652 106.971 69.6311C106.627 69.495 104.899 69.5876 103.032 69.6825C101.288 71.2951 99.6104 73.1236 98.0367 75.0321C98.4172 74.938 98.7929 74.8293 99.1709 74.694C100.971 74.0536 102.471 73.5388 103.763 73.1451L103.758 73.1451Z" fill="#D6CFAE"/>
<path d="M173.894 106.488C173.449 105.869 172.748 105.231 171.981 104.604C172.173 106.757 172.311 108.784 172.412 110.532C173.618 111.724 174.703 112.741 175.545 113.243C175.48 111.76 175.379 109.861 175.228 107.721C174.646 107.293 174.173 106.878 173.891 106.485L173.894 106.488Z" fill="#D6CFAE"/>
<path d="M139.612 59.5946C139.978 59.1562 140.605 58.5969 141.564 57.924C141.782 57.7691 142.007 57.6069 142.242 57.4351C141.291 57.0316 140.377 56.6742 139.504 56.3581C138.737 57.1791 137.979 57.9807 137.247 58.741C137.997 58.9916 138.79 59.2761 139.614 59.597L139.612 59.5946Z" fill="#D6CFAE"/>
<path d="M158.738 138.189C157.847 138.765 156.953 139.339 156.057 139.9C156.613 140.902 157.094 141.809 157.454 142.561C158.43 141.949 159.401 141.327 160.37 140.703C161.049 140.262 161.7 139.8 162.323 139.323C161.803 138.576 161.22 137.741 160.604 136.863C160.01 137.325 159.393 137.768 158.741 138.187L158.738 138.189Z" fill="#D6CFAE"/>
<path d="M141.247 60.2606C141.787 60.4915 142.336 60.7345 142.898 60.9969C144.361 61.6798 145.954 62.5082 147.633 63.5088C149.081 63.6437 149.699 63.6468 149.699 63.6468C149.699 63.6468 150.814 63.6917 152.83 63.3158C150.055 61.3733 147.399 59.865 145.024 58.706C143.817 58.9568 142.623 59.4863 141.407 60.1783C141.353 60.2074 141.3 60.2364 141.247 60.2654L141.247 60.2606Z" fill="#D6CFAE"/>
<path d="M101.075 144.087C100.647 144.981 100.214 145.894 99.7814 146.813C101.518 147.949 103.088 148.908 104.308 149.63C104.758 148.612 105.176 147.689 105.549 146.899C104.207 146.1 102.677 145.145 101.075 144.087Z" fill="#D6CFAE"/>
<path d="M117.971 70.9644C118.192 70.8606 118.126 70.8872 117.971 70.9644Z" fill="#D6CFAE"/>
<path d="M117.971 70.9645C117.877 71.0104 117.729 71.0757 117.516 71.1724C116.917 71.4457 117.177 71.9333 117.968 72.5402C119.906 71.3351 121.617 70.3479 123.09 69.5495C115.599 72.2006 117.392 71.2475 117.971 70.9645Z" fill="#D6CFAE"/>
<path d="M129.651 63.998L129.408 63.9735L129.173 64.0436C129.069 64.075 127.979 64.4083 125.917 65.3588C128.57 64.7144 130.536 64.2439 130.931 64.1886C130.162 64.0495 129.709 64.003 129.648 63.9956L129.651 63.998Z" fill="#D6CFAE"/>
<path d="M117.968 72.5402C117.175 71.9357 116.917 71.4457 117.516 71.1724C117.732 71.0733 117.877 71.0056 117.971 70.9645C118.192 70.8605 118.126 70.8871 117.971 70.9645C117.392 71.2475 115.602 72.1982 123.09 69.5495C126.76 67.5585 128.97 66.7173 129.656 66.478C129.906 66.5147 130.342 66.583 130.929 66.7C132.439 66.1466 133.815 65.6438 135.073 65.2016C133.305 64.6639 131.879 64.3569 130.933 64.1861C130.541 64.239 128.573 64.712 125.919 65.3563C123.186 66.6139 118.74 68.9484 112.602 73.0822C113.32 73.3787 114.244 73.7797 115.306 74.2463C116.239 73.634 117.125 73.0678 117.971 72.5426L117.968 72.5402Z" fill="#D6CFAE"/>
<path d="M112.121 142.957C112.157 142.64 112.159 142.046 112.129 141.236C111.976 141.199 111.86 141.17 111.775 141.148C110.055 140.208 107.387 138.61 104.614 136.694C104.273 137.409 103.91 138.17 103.528 138.965C106.987 141.315 110.003 142.984 110.735 143.382L110.864 143.453L111.004 143.492C111.062 143.506 111.463 143.611 112.163 143.774C112.11 143.444 112.092 143.17 112.119 142.96L112.121 142.957Z" fill="#D6CFAE"/>
<path d="M95.9936 97.4078C96.1629 97.0734 98.4078 92.6832 101.724 87.8142C101.096 87.9275 100.483 88.0019 100.068 87.9748C99.9274 87.965 99.5635 87.7464 99.0346 87.3676C95.9489 92.0211 93.9412 95.9995 93.7815 96.3193L93.7477 96.3968C94.1726 97.0446 94.6972 97.9227 95.2875 98.9682L95.9936 97.4078Z" fill="#D6CFAE"/>
<path d="M163.791 103.659C163.791 103.659 163.794 103.672 163.794 103.676C164.613 103.896 165.494 104.384 166.399 105.027C166.205 102.862 165.948 100.537 165.606 98.2531C165.104 98.4731 164.275 98.7534 163.238 99.0674C163.443 100.493 163.629 102.021 163.794 103.657L163.791 103.659Z" fill="#D6CFAE"/>
<path d="M160.091 87.6095C160.123 87.6605 160.152 87.7187 160.183 87.7696C160.965 86.2651 160.523 85.5858 159.018 85.9793C159.38 86.5057 159.737 87.0516 160.089 87.6071L160.091 87.6095Z" fill="#D6CFAE"/>
<path d="M159.284 126.961C160.161 127.107 161.066 127.28 161.958 127.485C163.142 125.743 164.056 123.994 164.765 122.388C163.909 122.282 163.046 122.17 162.182 122.048C161.445 123.62 160.496 125.311 159.284 126.961Z" fill="#D6CFAE"/>
<path d="M153.135 132.833C152.832 133.029 152.529 133.225 152.224 133.418C152.654 134.12 153.084 134.825 153.504 135.527C153.829 135.318 154.153 135.11 154.475 134.9C155.59 134.179 156.605 133.392 157.535 132.564C157.03 131.865 156.534 131.191 156.061 130.562C155.177 131.373 154.203 132.138 153.135 132.833Z" fill="#D6CFAE"/>
<path d="M106.753 93.5361C106.763 93.5845 106.806 93.6573 106.867 93.7422C107.102 93.3813 107.346 93.0155 107.595 92.6449C107.007 92.9424 106.709 93.2693 106.753 93.5361Z" fill="#D6CFAE"/>
<path d="M106.76 128.161C106.877 129.102 106.922 129.965 106.876 130.724C108.536 131.967 110.202 133.057 111.576 133.907C111.499 133.114 111.416 132.295 111.328 131.451C109.843 130.48 108.24 129.355 106.76 128.166L106.76 128.161Z" fill="#D6CFAE"/>
<path d="M155.805 104.841C155.868 105.476 155.925 106.104 155.974 106.71C156.643 106.473 157.27 106.229 157.854 105.99C157.705 104.3 157.504 102.487 157.24 100.702C156.608 100.864 155.975 101.021 155.357 101.177C155.521 102.315 155.67 103.534 155.802 104.843L155.805 104.841Z" fill="#D6CFAE"/>
<path d="M148.227 127.004C148.545 127.507 148.892 128.057 149.257 128.64C150.194 127.974 151.042 127.252 151.802 126.492C153.548 124.746 154.84 122.818 155.791 121.008C155.102 120.881 154.426 120.757 153.771 120.63C152.537 122.84 150.758 125.177 148.224 127.002L148.227 127.004Z" fill="#D6CFAE"/>
<path d="M132.89 134.9C131.751 135.224 130.622 135.46 129.509 135.592C129.857 136.327 130.202 136.943 130.544 137.397C131.569 137.236 132.602 136.999 133.639 136.695C133.629 136.671 133.617 136.649 133.607 136.625C133.374 136.139 133.133 135.555 132.895 134.9L132.89 134.9Z" fill="#D6CFAE"/>
<path d="M127.103 76.9333C126.319 76.6294 125.5 76.2988 124.682 75.9561C123.951 76.3286 123.122 76.7737 122.206 77.2915C122.961 77.6196 123.715 77.9477 124.455 78.2661C125.494 77.7072 126.378 77.2694 127.103 76.9333Z" fill="#D6CFAE"/>
<path d="M107.595 92.6449C108.946 90.6537 110.534 88.556 112.236 86.7519C111.86 86.749 111.48 86.7607 111.092 86.7797C110.53 86.8082 110.011 86.8367 109.533 86.8628C104.991 92.1765 101.653 98.7813 101.469 99.1496L100.108 102.147C99.6847 103.08 99.3518 104.607 99.1187 106.451C99.663 107.596 100.212 108.789 100.754 110.004C100.928 106.86 101.327 104.146 101.869 102.949L103.204 100.002C103.322 99.7673 104.73 97.0198 106.865 93.7447C106.804 93.6597 106.76 93.587 106.75 93.5385" fill="#D6CFAE"/>
<path d="M152.935 92.3919C153.219 92.8407 153.489 93.4155 153.747 94.0946C154.289 93.6734 154.815 93.2546 155.321 92.8454C155.088 92.2924 154.84 91.7879 154.568 91.361C154.119 90.6502 153.655 89.9782 153.186 89.3255C152.697 89.6886 152.179 90.0759 151.639 90.4802C152.078 91.094 152.515 91.7248 152.935 92.3919Z" fill="#D6CFAE"/>
<path d="M109.468 104.693L110.414 102.607C110.433 102.568 111.309 100.838 112.691 98.665C112.31 98.3761 111.934 98.0872 111.57 97.8007C110.147 100.034 109.235 101.83 109.15 102.002L108.192 104.11C108.149 104.202 108.11 104.308 108.069 104.417C108.477 104.675 108.887 104.92 109.301 105.156C109.357 104.979 109.413 104.821 109.471 104.69L109.468 104.693Z" fill="#D6CFAE"/>
<path d="M142.955 121.379C143.387 121.661 143.795 121.933 144.166 122.198C144.454 121.953 144.73 121.701 144.987 121.445C145.73 120.701 146.357 119.909 146.89 119.119C146.342 118.978 145.857 118.847 145.44 118.725C144.772 119.66 143.953 120.576 142.953 121.382L142.955 121.379Z" fill="#D6CFAE"/>
<path d="M109.073 117.941C108.742 116.316 108.601 114.161 108.608 112.042C108.25 110.158 107.882 108.449 107.507 107.018C107.062 110.351 107.089 115.221 107.701 118.216C107.96 119.486 108.936 120.816 110.202 122.073C110.088 121.222 109.968 120.376 109.846 119.532C109.452 118.979 109.18 118.44 109.076 117.938L109.073 117.941Z" fill="#D6CFAE"/>
<path d="M148.822 102.78C148.822 102.78 148.82 102.758 148.818 102.751C148.803 102.756 148.781 102.758 148.774 102.761C148.651 102.787 148.719 102.787 148.82 102.782L148.822 102.78Z" fill="#D6CFAE"/>
<path d="M126.834 127.938C126.97 128.419 127.112 128.894 127.253 129.359C128.523 129.409 129.817 129.26 131.121 128.947C131.007 128.498 130.895 128.042 130.785 127.589C129.438 127.907 128.114 128.051 126.834 127.938Z" fill="#D6CFAE"/>
<path d="M145.779 97.1742C146.139 97.7419 146.448 98.5301 146.71 99.4467C147.093 99.1514 147.488 98.8488 147.89 98.5438C147.622 97.7096 147.319 96.9844 146.964 96.4265C146.597 95.8467 146.216 95.3008 145.83 94.7743C145.452 95.0503 145.074 95.3262 144.699 95.5997C145.07 96.1019 145.432 96.6236 145.782 97.1767L145.779 97.1742Z" fill="#D6CFAE"/>
<path d="M117.459 92.5467C118.033 91.9873 118.624 91.4837 119.223 91.065C120.635 90.0799 121.907 89.2547 123.038 88.5699C122.386 88.4261 121.738 88.2775 121.096 88.1241C120.265 88.6541 119.376 89.247 118.419 89.9126C117.535 90.5298 116.678 91.3095 115.859 92.1667C116.325 92.2594 116.805 92.3666 117.299 92.498C117.353 92.5126 117.409 92.5297 117.462 92.5443L117.459 92.5467Z" fill="#D6CFAE"/>
<path d="M147.451 103.04C147.764 105.111 147.953 107.295 148.062 109.031C148.524 108.918 148.99 108.802 149.448 108.684C149.334 106.957 149.143 104.838 148.826 102.797C148.716 102.809 148.569 102.821 148.372 102.842C148.157 102.864 147.832 102.941 147.449 103.047L147.451 103.04Z" fill="#D6CFAE"/>
<path d="M136.332 116.766C136.085 116.926 135.84 117.083 135.591 117.24C135.892 117.391 136.195 117.544 136.498 117.697C136.602 117.632 136.704 117.564 136.808 117.499C137.322 117.165 137.774 116.789 138.172 116.392C138.45 116.114 138.702 115.823 138.929 115.528C138.67 115.384 138.408 115.243 138.148 115.1C137.667 115.708 137.068 116.287 136.334 116.764L136.332 116.766Z" fill="#D6CFAE"/>
<path d="M117.068 106.437L117.631 105.199C117.643 105.177 118.105 104.264 118.848 103.074C118.622 102.931 118.377 102.768 118.115 102.593C117.365 103.795 116.894 104.728 116.843 104.822L116.272 106.077C116.076 106.511 115.924 107.25 115.823 108.133C116.11 108.24 116.393 108.349 116.67 108.451C116.758 107.552 116.896 106.817 117.065 106.439L117.068 106.437Z" fill="#D6CFAE"/>
<path d="M128.662 95.0463C128.912 95.0975 129.581 95.2485 130.486 95.5768C130.91 95.473 131.322 95.3183 131.719 95.1054C130.041 94.3957 128.807 94.1834 128.693 94.1663L128.584 94.1492L128.479 94.1855C128.421 94.2048 127.554 94.5093 126.064 95.3149C126.524 95.4318 126.973 95.5317 127.409 95.6049C128.044 95.2953 128.473 95.1188 128.66 95.0487L128.662 95.0463Z" fill="#D6CFAE"/>
<path d="M138.624 101.957C139.782 103.759 140.013 109.323 140.054 110.685C140.34 110.637 140.631 110.589 140.924 110.538C140.876 108.931 140.615 103.45 139.358 101.49C139.035 100.987 138.697 100.519 138.348 100.082C138.1 100.252 137.856 100.414 137.621 100.571C137.968 101.001 138.305 101.464 138.621 101.959L138.624 101.957Z" fill="#D6CFAE"/>
<path d="M127.364 120.225C126.355 120.137 125.473 120.015 124.755 119.897C124.826 120.201 124.901 120.508 124.977 120.816C125.641 120.919 126.417 121.017 127.292 121.093C127.961 121.152 128.647 121.107 129.338 120.984C129.28 120.693 129.223 120.409 129.17 120.128C128.557 120.236 127.955 120.274 127.369 120.225L127.364 120.225Z" fill="#D6CFAE"/>
<path d="M128.311 104.202L128.25 104.229C128.209 104.246 127.211 104.676 126.305 105.33C125.38 105.993 124.572 107.563 124.535 107.638L124.354 108.038C124.151 108.488 124.092 109.95 124.25 110.733C124.416 111.558 126.117 112.498 126.311 112.605L126.349 112.619C126.374 112.624 126.965 112.78 127.872 112.859C128.859 112.944 129.922 112.352 130.923 111.701C131.088 111.594 131.233 111.473 131.359 111.347C132.083 110.623 132.242 109.668 132.254 109.598C132.251 109.503 132.237 107.271 131.754 106.555C130.717 105.019 128.471 104.261 128.376 104.229L128.316 104.207L128.311 104.202ZM131.465 106.741C131.817 107.263 131.904 108.977 131.91 109.564C131.907 109.576 131.702 110.776 130.731 111.407C129.781 112.027 128.781 112.586 127.898 112.512C127.113 112.443 126.56 112.316 126.453 112.287C125.954 112.015 124.697 111.219 124.585 110.661C124.431 109.902 124.505 108.532 124.667 108.176L124.846 107.784C124.846 107.784 125.654 106.223 126.507 105.604C127.257 105.062 128.096 104.67 128.326 104.566C128.69 104.697 130.586 105.436 131.465 106.737L131.465 106.741Z" fill="#D6CFAE"/>
</g>
<defs>
<clipPath id="clip0_53_346">
<rect width="178.64" height="162.186" fill="white" transform="translate(0 126.317) rotate(-45)"/>
</clipPath>
</defs>
</svg>
