<?xml version="1.0" encoding="UTF-8"?>
<svg id="Layer_2" data-name="Layer 2" xmlns="http://www.w3.org/2000/svg" viewBox="0 0 112.64 112.26">
  <defs>
    <style>
      .cls-1 {
        fill: none;
        stroke: #000;
        stroke-miterlimit: 10;
        stroke-width: 2px;
      }
    </style>
  </defs>
  <g id="Layer_2_copy" data-name="Layer 2 copy">
    <path class="cls-1" d="M107.97,98.73l-3.39-1.79c-.5-.27-.76-.84-.63-1.39l1.75-7.46c.07-.3.03-.61-.11-.87l-5.24-9.84c-.13-.25-.35-.45-.62-.56l-3.91-1.66c-.16-.07-.31-.17-.43-.3l-12.73-13.65c-.24-.25-.57-.4-.91-.4h-7.32c-.28,0-.56-.1-.78-.27l-9.14-7.25c-.47-.37-.61-1.02-.33-1.55l4.95-9.6c.17-.33.47-.56.83-.64l5.31-1.24c.21-.05.4-.15.55-.29l3.78-3.41c.2-.18.33-.41.39-.67l1.87-8.93,2.85-12.93c.16-.71-.32-1.4-1.04-1.51l-14.44-2.05c-.22-.03-.44-.12-.61-.27l-9.13-7.4c-.49-.4-1.2-.37-1.66.08l-1.83,1.78c-.32.31-.77.43-1.2.31l-14.28-3.92c-.49-.13-1.01.04-1.32.44l-6.7,8.58c-.22.28-.54.45-.89.48l-4.47.35c-.21.02-.42.09-.59.21l-10.05,6.7c-.16.1-.29.24-.38.4l-2.76,4.63c-.38.64-.12,1.47.56,1.78l3.6,1.63c.54.25.84.84.7,1.42l-1.21,5.18c-.12.5-.53.88-1.04.95l-6.67.97c-.76.11-1.25.88-1.01,1.62l1.42,4.47c.22.7-.2,1.44-.91,1.6l-4.28.97c-.52.12-.9.55-.97,1.07l-.59,5.07c-.03.27.03.55.17.78l2.08,3.52c.29.48.21,1.1-.17,1.5l-1.21,1.27c-.35.37-.45.91-.24,1.38l4.34,9.61c.2.44.13.96-.19,1.33l-6.44,7.53c-.36.43-.4,1.04-.09,1.51l4.92,7.33c.14.21.21.45.21.7v6.51c0,.59.41,1.1.98,1.22l9.86,2.16c.24.05.46.17.63.35l7.8,8.01s.06.07.09.1l5,6.42c.25.31.63.49,1.03.48l77.63-2.46c.61-.02,1.12-.48,1.2-1.08l1.07-7.88c.12-.91-.74-1.64-1.62-1.36l-1.07.34c-.32.1-.67.07-.97-.09Z"/>
  </g>
</svg>