<?xml version="1.0" encoding="UTF-8"?>
<svg id="Layer_2" data-name="Layer 2" xmlns="http://www.w3.org/2000/svg" viewBox="0 0 274.57 280.51">
  <defs>
    <style>
      .cls-1 {
        fill: none;
        stroke: #000;
        stroke-miterlimit: 10;
        stroke-width: 2px;
      }
    </style>
  </defs>
  <g id="Layer_2_copy" data-name="Layer 2 copy">
    <path class="cls-1" d="M269.63,186.43l.39-9.78c.01-.3-.08-.6-.27-.83l-2.77-3.46c-.19-.24-.47-.4-.77-.45l-6.16-1.03c-.55-.09-.97-.53-1.04-1.08l-1.09-9.09c-.04-.3-.18-.59-.41-.79l-5.79-5.11c-.54-.47-1.36-.4-1.8.16l-1.86,2.33c-.39.48-1.07.61-1.61.3l-3.95-2.3c-.1-.06-.21-.1-.33-.13l-4.02-1.01c-.51-.13-.88-.56-.94-1.07l-.62-5.58c-.07-.63-.61-1.11-1.24-1.11h-4.8c-.25,0-.49-.07-.69-.21l-7.09-4.73c-.1-.06-.19-.14-.26-.23l-3.29-3.89c-.58-.68-.27-1.73.58-2l4.44-1.4c.84-.26,1.15-1.29.6-1.97l-3.9-4.87-4.62-5.46-7.13-9.25c-.23-.29-.31-.67-.23-1.03l.66-2.99c.16-.72-.34-1.42-1.07-1.51l-5.99-.74c-.27-.03-.52-.15-.72-.34l-3.84-3.72c-.23-.22-.37-.53-.38-.85l-.16-4.19c-.02-.42-.24-.81-.61-1.02l-1.94-1.17c-.36-.22-.59-.59-.61-1.01l-.11-2.36c-.03-.71-.65-1.25-1.36-1.19l-.26.02c-.44.04-.87-.15-1.12-.51l-2.47-3.4c-.26-.35-.68-.55-1.11-.51l-4.99.41c-.54.05-1.06-.27-1.26-.77l-.95-2.33c-.21-.52-.74-.83-1.3-.77l-5.88.65c-.39.04-.77-.1-1.04-.37l-4.81-4.98c-.22-.23-.34-.53-.35-.84l-.18-8.66c0-.35-.16-.69-.43-.92l-3.86-3.35c-.3-.26-.7-.36-1.08-.28l-3.38.72c-.66.14-1.3-.26-1.47-.91l-1.09-4.24c-.04-.16-.11-.3-.2-.43l-2.65-3.6c-.06-.09-.14-.16-.22-.23l-10.36-8.37c-.16-.13-.28-.29-.36-.48l-2.26-5.28c-.06-.14-.15-.27-.25-.38l-6.02-6.18c-.61-.62-1.65-.45-2.02.33l-.91,1.89c-.32.66-1.14.91-1.77.53l-7.74-4.61c-.46-.28-.7-.82-.58-1.35l1.03-4.56c.13-.56-.15-1.14-.66-1.39l-4.04-2.02c-.29-.14-.51-.39-.62-.7l-2.09-5.86c-.14-.38-.45-.68-.84-.78l-4.78-1.33c-.48-.13-.83-.54-.9-1.03l-.8-5.6c-.07-.49-.42-.89-.9-1.03l-6.41-1.78c-.15-.04-.3-.11-.42-.21l-4.63-3.51c-.61-.46-1.49-.27-1.86.41l-2.16,4.03c-.16.29-.19.64-.09.96l2.17,7.05c.1.32.06.67-.1.97l-4.42,8.11c-.17.32-.2.7-.07,1.04l1.35,3.53c.07.17.09.36.08.54l-.35,4.5c-.03.37.11.73.38.99l6.01,5.83c.36.35.88.45,1.34.26l3.99-1.63c.49-.2,1.06-.07,1.41.33l3.46,3.96c.18.21.29.48.31.76l.54,10.34c.03.58-.34,1.1-.9,1.27l-3.65,1.06c-.23.07-.44.2-.6.39l-2.94,3.43c-.33.38-.85.53-1.32.38l-1.79-.56c-.45-.14-.78-.51-.86-.97l-.67-3.77c-.12-.69-.79-1.15-1.48-1l-5.27,1.09c-.31.06-.59.25-.77.51l-2.05,2.93c-.33.47-.3,1.1.07,1.53l5.2,6.06c.23.27.34.62.29.98l-.47,3.58c-.05.38.08.77.36,1.05l2.07,2.07c.24.24.38.58.37.93l-.18,5.49c0,.11-.02.21-.05.31l-2.78,9.46c-.16.54.06,1.11.54,1.41l10.73,6.73c.4.25.62.7.58,1.17l-.9,10.23c-.04.47.19.93.59,1.17l4.8,2.94c.54.33.75,1.01.48,1.58l-4.31,9.49c-.23.51-.1,1.1.32,1.47l7.55,6.47c.26.22.42.54.43.89l.32,6.16c.04.73-.55,1.33-1.28,1.31l-20.01-.57c-.33,0-.65.11-.89.34l-5.54,5.2c-.5.47-1.28.45-1.76-.05l-3.69-3.85c-.13-.14-.29-.24-.47-.31l-5.42-2.01c-.77-.29-1.61.24-1.68,1.06l-.37,4.06c-.06.64-.59,1.13-1.23,1.14l-6.59.09-5.4.27c-.61.03-1.11.5-1.18,1.11l-2.03,18.84c-.07.63-.59,1.11-1.22,1.12l-48.75.72c-.66,0-1.2.53-1.23,1.19l-.35,6.72c-.02.32.09.64.31.89l1.09,1.24c.36.41.94.54,1.44.32l2.98-1.31c.91-.4,1.9.37,1.74,1.35l-1.66,10.08c-.08.49.14.99.56,1.26l5.45,3.48c.4.26.92.26,1.33.01l9.13-5.63c.46-.28,1.04-.24,1.46.1l3.04,2.53c.37.31.53.81.41,1.28l-.16.63c-.19.72.29,1.45,1.03,1.56l8.01,1.16c.38.05.71.28.9.61l3.41,5.84c.21.37.23.82.04,1.2l-4.49,8.86c-.17.33-.48.57-.84.65l-2.75.62c-.65.15-1.07.78-.96,1.44l1.88,10.63c.06.32.23.6.5.79l10.25,7.46c.31.22.5.57.51.95l.54,11.78c.01.24-.05.47-.16.68l-2.29,4c-.46.81.09,1.82,1.02,1.87l3.32.17c.19,0,.38.06.55.16l6.1,3.43c.37.21.82.21,1.2.02l1.33-.7c.49-.26,1.09-.16,1.47.23l8.21,8.34c.17.17.39.29.63.35l12.26,2.64c.51.11.89.52.97,1.03l.67,4.34c.04.29.19.56.41.75l3.88,3.4c.26.23.6.34.94.3l4.52-.44c.53-.05,1.03.24,1.25.72l1.04,2.22c.32.69,1.19.94,1.83.51l9.07-6.05c.18-.12.38-.19.59-.21l4.47-.35c.35-.03.67-.2.89-.48l6.7-8.58c.31-.4.83-.57,1.32-.44l14.28,3.92c.43.12.88,0,1.2-.31l1.73-1.68c.5-.48.51-1.28.02-1.77l-3.75-3.82c-.23-.23-.35-.54-.36-.86l-.11-7.41c0-.46.24-.89.65-1.11l7.38-4.08c.17-.09.35-.14.54-.15l13.32-.71c.16,0,.32-.05.46-.12l3.47-1.63c.17-.08.36-.12.56-.12l4.99.11c.34,0,.66.15.89.41l7.22,7.88c.35.38.9.51,1.38.32l6.78-2.69c.14-.05.28-.08.43-.09l18.4-.46c.71-.02,1.26-.62,1.22-1.33l-.49-8.06c-.03-.48.22-.94.64-1.17l4.72-2.61c.26-.14.46-.37.56-.65l2.09-5.48c.02-.06.05-.12.08-.17l1.66-2.93c.22-.4.21-.89-.03-1.27l-2.23-3.59c-.16-.25-.22-.55-.18-.84l.9-6.25c.04-.29-.02-.59-.18-.84l-7.26-11.66c-.23-.37-.25-.82-.06-1.21l1.32-2.68c.26-.53.11-1.17-.35-1.53l-.23-.18c-.62-.49-.64-1.42-.04-1.93l7.19-6.16c.3-.25.46-.63.44-1.02l-.64-11.36c-.03-.46.2-.89.59-1.13l2.45-1.52c.52-.32,1.19-.22,1.59.23l9.1,10.16c.28.32.71.47,1.13.4l5.25-.84c.33-.05.67.03.94.22l3.38,2.47c.22.16.48.24.74.24l14.57-.07c.42,0,.82.21,1.05.56l1.41,2.15s.06.08.09.12l3.65,4.31c.39.46.39,1.14.01,1.6l-2,2.43c-.39.47-.38,1.16.02,1.62l3.79,4.33c.35.4.41.99.14,1.45l-1.24,2.12c-.31.53-.19,1.2.28,1.59l3.76,3.12c.36.3.87.37,1.3.18l3.35-1.47c.3-.13.54-.38.66-.69l1.82-4.66c.09-.22.24-.42.43-.56l7.85-5.69c.45-.33.63-.92.44-1.45l-3.78-10.21c-.06-.15-.08-.32-.08-.48Z"/>
  </g>
</svg>