<?xml version="1.0" encoding="UTF-8"?>
<svg id="Layer_2" data-name="Layer 2" xmlns="http://www.w3.org/2000/svg" viewBox="0 0 174.34 119.97">
  <defs>
    <style>
      .cls-1 {
        fill: none;
        stroke: #000;
        stroke-miterlimit: 10;
        stroke-width: 2px;
      }
    </style>
  </defs>
  <g id="Layer_2_copy" data-name="Layer 2 copy">
    <path class="cls-1" d="M167.82,110.03l-4.64-1.43c-.27-.08-.5-.25-.66-.49l-4.28-6.23c-.06-.08-.12-.16-.2-.23l-3.13-2.78c-.33-.3-.48-.74-.4-1.18l.98-4.9c.09-.43-.06-.87-.38-1.16l-4.05-3.74c-.49-.46-.54-1.22-.1-1.73l1.46-1.7c.18-.21.28-.47.3-.75l.81-14.92c0-.12,0-.25-.04-.37l-2.05-8.21-2.46-9.83c-.04-.16-.11-.31-.21-.45l-3.56-4.74c-.04-.06-.08-.12-.12-.19l-3-6.01c-.37-.73-1.33-.92-1.94-.38l-1.54,1.35c-.36.32-.88.4-1.32.2l-5.24-2.29c-.45-.2-.75-.65-.75-1.15v-4.34c0-.44-.24-.86-.62-1.08l-4.36-2.54s-.07-.04-.11-.07l-3.83-2.78c-.44-.32-.62-.89-.45-1.41l1.21-3.62c.12-.35.07-.73-.11-1.04l-3.26-5.43c-.15-.24-.37-.43-.63-.53l-6.17-2.31c-.09-.03-.19-.06-.28-.07l-2.4-.3c-.49-.06-.9-.41-1.04-.88l-2.11-7.03c-.11-.37-.39-.67-.75-.81l-3.68-1.42c-.66-.25-1.39.09-1.63.75l-.91,2.6c-.07.2-.09.42-.05.63l.89,5.2c.07.41-.06.82-.36,1.11l-2.7,2.64c-.37.36-.48.92-.27,1.4l.69,1.57c.29.67-.05,1.45-.74,1.69l-9.88,3.37c-.44.15-.76.53-.83.99l-.7,4.58c-.04.26-.16.49-.34.68l-1.57,1.63c-.41.43-1.07.5-1.57.19l-7.6-4.8c-.38-.24-.6-.66-.58-1.1l.13-4.04c.01-.34-.11-.66-.34-.9l-5.01-5.26-.44-.18-4.06,4.06c-.11.11-.2.24-.26.38l-2.52,5.67c-.13.3-.14.63-.03.94l2.22,6.06c.15.42.52.73.97.8l3.27.55c.67.11,1.13.75,1.03,1.42l-1.19,7.85c-.07.49-.43.89-.9,1.02l-6,1.66c-.34.09-.7.04-1-.14l-5.54-3.46c-.22-.14-.48-.2-.74-.19l-6.46.38c-.44.03-.87-.19-1.11-.56l-3.68-5.56c-.25-.38-.7-.6-1.16-.55l-2.87.26c-.68.06-1.19.66-1.13,1.35l.57,6.87c.02.28-.05.57-.21.8l-3.57,5.29c-.18.27-.25.6-.19.92l2.04,11.41c.08.42-.07.86-.39,1.15l-5.43,4.91c-.35.32-.49.81-.36,1.27l2.34,8.25c.22.79-.36,1.58-1.18,1.59l-22.44.32c-.27,0-.52.09-.73.25l-6.32,4.76c-.31.23-.49.59-.5.97l-.32,13.22c0,.39.16.76.47,1.01l4.21,3.35c.32.25.49.64.47,1.04l-.21,4.04c-.01.27-.12.54-.3.75l-2.53,2.96c-.18.21-.29.48-.3.76l-.26,6.04c-.03.71.54,1.3,1.25,1.3h168.29c1.02,0,1.61-1.15,1.02-1.98l-4.64-6.49c-.16-.22-.39-.39-.65-.47Z"/>
  </g>
</svg>