<?xml version="1.0" encoding="UTF-8"?>
<svg id="Layer_2" data-name="Layer 2" xmlns="http://www.w3.org/2000/svg" viewBox="0 0 216.85 350.53">
  <defs>
    <style>
      .cls-1 {
        fill: none;
        stroke: #000;
        stroke-miterlimit: 10;
        stroke-width: 2px;
      }
    </style>
  </defs>
  <g id="Layer_2_copy" data-name="Layer 2 copy">
    <path class="cls-1" d="M155.55,325.29l8.4-7.71s.09-.09.14-.15l7.57-9.59c.26-.33.66-.5,1.08-.47l5.8.45c.33.03.65-.08.9-.29l4.61-3.89c.43-.36,1.04-.39,1.5-.08l4.23,2.82c.51.34,1.2.26,1.61-.19l5.09-5.54c.17-.19.28-.42.32-.67l1.12-7.97c.05-.37-.06-.74-.32-1.02l-7.11-7.72c-.49-.53-.43-1.37.14-1.82l6.36-5.09c.45-.36.6-.99.35-1.51l-4.05-8.5c-.12-.25-.32-.46-.57-.58l-9.91-4.96c-.33-.17-.58-.47-.66-.84l-.7-3.04c-.04-.16-.1-.31-.2-.44l-6.54-9.24c-.09-.13-.15-.27-.19-.42l-2.37-9.48c-.14-.57.13-1.15.65-1.42l4.78-2.42c.31-.16.54-.43.63-.76l.5-1.71c.06-.19.16-.37.3-.51l2.52-2.65c.24-.25.37-.6.34-.94l-.16-2.52c-.01-.22.03-.45.13-.65l2.37-4.66,3.64-7.04c.41-.8-.13-1.77-1.03-1.82l-5.33-.33c-.95-.06-1.49-1.11-.98-1.91l2.1-3.35c.25-.41.25-.92,0-1.33l-2.62-4.18c-.13-.21-.2-.47-.19-.72l.77-17.88c.03-.67.58-1.2,1.25-1.2h24.17c.24,0,.47-.07.68-.2l8.64-5.55c.72-.46.77-1.5.1-2.03l-6.71-5.35c-.35-.28-.53-.74-.45-1.18l1.07-6.4c.13-.78-.49-1.49-1.29-1.45l-2.82.12c-.37.02-.73-.13-.98-.41l-6.92-7.62c-.29-.32-.73-.47-1.16-.39l-5.07.97c-.52.1-1.04-.14-1.31-.59l-5.89-9.97c-.22-.37-.61-.6-1.04-.61l-14.39-.46c-.67-.02-1.2-.56-1.21-1.22l-.17-8.34c-.01-.52-.34-.98-.83-1.15l-6.22-2.2c-.77-.27-1.07-1.19-.62-1.87l.09-.13c.23-.35.22-.81-.02-1.15l-2.22-3.06c-.5-.68-.19-1.65.62-1.92l4.99-1.66c.53-.18.88-.68.85-1.24l-.16-3.58c-.01-.31.09-.62.29-.86l5.08-6.05c.32-.38.38-.92.16-1.36l-2.11-4.22c-.36-.72.05-1.59.83-1.78l4.83-1.13c.29-.07.55-.24.73-.49l4.52-6.26c.53-.73.13-1.76-.75-1.95l-8.75-1.89c-.58-.12-.99-.63-.99-1.22v-4.1c0-.49-.29-.94-.73-1.14l-13.62-6.19c-.41-.19-.69-.58-.73-1.03l-.58-6.77c-.03-.3-.16-.58-.37-.79l-10.67-10.45c-.24-.24-.38-.56-.38-.9l.44-49.41c0-.69-.55-1.26-1.25-1.26L9.84,1c-.84,0-1.45.81-1.2,1.62l.11.36c.02.07.05.13.08.19l18.3,33.21s.04.07.06.1l8.92,12.97c.35.51.27,1.21-.18,1.63l-3.55,3.28c-.64.59-.5,1.63.27,2.03l7.75,4.05c.41.22.67.64.67,1.11v8.58c0,.41.2.8.54,1.03l6.95,4.76c.45.31.65.88.49,1.41l-1.82,5.75c-.25.81.35,1.63,1.19,1.63h9.99c.31,0,.6.11.83.32l15.5,13.83c.15.13.33.23.53.28l6.34,1.59c.21.05.4.16.55.3l6.36,5.96c.23.22.54.34.85.34h2.17c.5,0,.95.29,1.15.75l2.51,5.75c.13.3.37.53.66.65l4.52,1.88c.15.06.32.1.48.1h3.08c.37,0,.72.16.95.44l3.81,4.5c.35.42.39,1.02.1,1.48l-3.35,5.21c-.04.07-.08.14-.11.21l-3.3,8.25c-.09.22-.11.45-.07.69l1.8,10.03s0,.04.01.07l3.66,15.47c.07.29.03.59-.1.86l-10.15,19.89c-.09.17-.21.32-.37.44l-12.05,8.94c-.43.32-.61.89-.44,1.4l.44,1.31c.27.8-.31,1.62-1.15,1.64l-81.04,2.03c-.67.02-1.21.57-1.22,1.24l-.41,52.28c0,.15.02.3.08.44l10.32,28.07c.06.17.09.35.07.53l-.79,10.26c-.02.25.04.5.16.72l6.16,10.79c.22.39.64.63,1.09.63h7.79c.65,0,1.19.49,1.24,1.14l.71,7.84c.02.17.06.33.14.48l9.79,18.35c.11.2.27.37.46.49l23.45,13.99c.11.07.24.12.37.15l12.56,2.84c.17.04.34.04.51,0l16-3.12c.56-.11.97-.58,1.01-1.15l.34-5.44c.01-.2-.02-.41-.11-.6l-4.05-8.91s-.03-.05-.04-.08l-7.48-13.71c-.04-.07-.07-.13-.09-.2l-4.14-12.43s-.02-.08-.03-.11l-2.46-10.65c-.03-.14-.04-.28-.02-.42l.78-7.02c.02-.21.1-.42.23-.59l8.63-12c.44-.61,1.32-.7,1.87-.18l13.11,12.34c.08.07.16.14.26.19l13.37,7.29c.22.12.4.31.52.53l12.18,23.95c.15.3.41.52.73.62l20.47,6.69c.51.17.86.65.86,1.19v5.84c0,.84.81,1.44,1.62,1.19l4.65-1.43c.43-.13.75-.48.85-.92l1.01-4.45c.06-.25.19-.47.37-.65Z"/>
  </g>
</svg>