<svg width="277" height="54" viewBox="0 0 277 54" fill="none" xmlns="http://www.w3.org/2000/svg">
<rect width="277" height="54" rx="15" fill="#D6CFAE"/>
<ellipse cx="29.5" cy="27" rx="22.5" ry="23" fill="#764134"/>
<path d="M24.8125 20.3208C26.2105 20.3208 27.3438 18.8377 27.3438 17.0082C27.3438 15.1787 26.2105 13.6955 24.8125 13.6955C23.4145 13.6955 22.2813 15.1787 22.2813 17.0082C22.2813 18.8377 23.4145 20.3208 24.8125 20.3208Z" fill="#4A8694"/>
<path d="M16.9488 35.7799H32.6763C31.2588 34.499 27.8331 33.0193 24.8125 33.0193C21.7919 33.0193 18.3663 34.499 16.9488 35.7799Z" fill="#4A8694"/>
<path d="M24.8125 24.7377C28.0694 24.7377 30.7188 21.2705 30.7188 17.0082C30.7188 12.7459 28.0694 9.27869 24.8125 9.27869C21.5556 9.27869 18.9063 12.7459 18.9063 17.0082C18.9063 21.2705 21.5556 24.7377 24.8125 24.7377ZM24.8125 13.6955C26.2131 13.6955 27.3438 15.1752 27.3438 17.0082C27.3438 18.8412 26.2131 20.3208 24.8125 20.3208C23.4119 20.3208 22.2813 18.8412 22.2813 17.0082C22.2813 15.1752 23.4119 13.6955 24.8125 13.6955ZM24.8125 28.6025C20.8638 28.6025 13 31.1863 13 36.332V40.1967H36.625V36.332C36.625 31.1863 28.7613 28.6025 24.8125 28.6025ZM16.9488 35.7799C18.3663 34.499 21.7919 33.0193 24.8125 33.0193C27.8331 33.0193 31.2588 34.499 32.6763 35.7799H16.9488ZM36.6925 28.735C38.65 30.59 40 33.0635 40 36.332V40.1967H46.75V36.332C46.75 31.8709 40.8438 29.3312 36.6925 28.735ZM34.9375 24.7377C38.1944 24.7377 40.8438 21.2705 40.8438 17.0082C40.8438 12.7459 38.1944 9.27869 34.9375 9.27869C34.0263 9.27869 33.1825 9.56578 32.4062 10.0516C33.4694 12.0171 34.0938 14.4243 34.0938 17.0082C34.0938 19.5921 33.4694 21.9992 32.4062 23.9648C33.1825 24.4506 34.0263 24.7377 34.9375 24.7377Z" fill="#4A8694"/>
<path d="M253.562 27C253.562 19.065 247.262 12.625 239.5 12.625C231.738 12.625 225.438 19.065 225.438 27C225.438 34.935 231.738 41.375 239.5 41.375C247.262 41.375 253.562 34.935 253.562 27ZM239.5 31.0106V28.4375H235.281C234.508 28.4375 233.875 27.7906 233.875 27C233.875 26.2094 234.508 25.5625 235.281 25.5625H239.5V22.9894C239.5 22.3425 240.259 22.0262 240.695 22.4862L244.619 26.4969C244.9 26.7844 244.9 27.23 244.619 27.5175L240.695 31.5281C240.596 31.6275 240.47 31.6946 240.334 31.721C240.198 31.7475 240.057 31.732 239.929 31.6767C239.801 31.6213 239.692 31.5286 239.616 31.41C239.539 31.2915 239.499 31.1525 239.5 31.0106Z" fill="#3C522A"/>
</svg>
