<svg width="475" height="105" viewBox="0 0 475 105" fill="none" xmlns="http://www.w3.org/2000/svg">
<rect width="475" height="100" rx="4" fill="#D6CFAE"/>
<rect width="15" height="100" fill="#2A1A1F"/>
<circle cx="406.5" cy="50.5" r="39.5" fill="#2A1A1F"/>
<circle cx="406.5" cy="50.5" r="35.1712" fill="#AFA060"/>
<path d="M418.193 56.6562H415.847L415.016 55.8543C418.027 52.3618 419.682 47.9028 419.678 43.2913C419.678 39.4731 418.546 35.7407 416.425 32.566C414.304 29.3913 411.289 26.917 407.761 25.4558C404.234 23.9947 400.352 23.6124 396.607 24.3572C392.862 25.1021 389.423 26.9408 386.723 29.6406C384.023 32.3404 382.184 35.7803 381.439 39.5251C380.695 43.2699 381.077 47.1514 382.538 50.679C383.999 54.2065 386.474 57.2215 389.648 59.3428C392.823 61.464 396.555 62.5962 400.373 62.5962C405.155 62.5962 409.551 60.8439 412.937 57.9333L413.738 58.7649V61.1112L428.588 75.9315L433.014 71.5062L418.193 56.6562ZM400.373 56.6562C392.978 56.6562 387.008 50.6866 387.008 43.2913C387.008 35.896 392.978 29.9263 400.373 29.9263C407.769 29.9263 413.738 35.896 413.738 43.2913C413.738 50.6866 407.769 56.6562 400.373 56.6562Z" fill="#2A1A1F"/>
</svg>
