<?xml version="1.0" encoding="UTF-8"?>
<svg id="Layer_2" data-name="Layer 2" xmlns="http://www.w3.org/2000/svg" viewBox="0 0 255.68 369.49">
  <defs>
    <style>
      .cls-1 {
        fill: none;
        stroke: #000;
        stroke-miterlimit: 10;
        stroke-width: 2px;
      }
    </style>
  </defs>
  <g id="Layer_2_copy" data-name="Layer 2 copy">
    <path class="cls-1" d="M4.98,1h-.1l.08,9.4c0,.34-.13.66-.37.89l-3.22,3.22c-.28.28-.41.68-.35,1.07l1.12,7.47c.05.33.23.63.5.83l4.88,3.54c.17.12.31.29.4.48l13.32,28.56c.16.35.48.6.85.69l4.87,1.13c.62.14,1.03.73.96,1.36l-1.78,15.53c-.05.41.11.82.43,1.09l.85.73c.16.14.29.32.36.52l3.24,8.83h.38l1.58-.49c.39-.12.82-.04,1.14.21l6.09,4.76c.26.2.59.3.92.26l6.09-.72c.66-.08,1.26.37,1.38,1.02l.25,1.4c.05.27.18.51.38.7l9.12,8.42c.25.23.59.35.93.33l4.2-.29c.5-.03.97.23,1.2.68l2.45,4.83c.19.37.55.63.97.68l11.55,1.35c.13.02.26.05.38.11l6.59,3.05c.21.1.44.13.66.11l6.41-.71c.52-.06,1.02.21,1.25.68l2.82,5.58c.22.44.16.98-.16,1.36l-3.46,4.15c-.13.16-.23.35-.27.56l-.46,2.37c-.13.67-.77,1.11-1.44.99l-6.15-1.09c-.26-.05-.54,0-.78.11l-16.03,8.05c-.59.3-1.31.08-1.64-.49l-2.84-4.85c-.31-.53-.95-.75-1.52-.54l-5.73,2.16c-.09.04-.18.08-.26.14l-6.38,4.37c-.44.3-1.02.29-1.45-.02l-11.69-8.6c-.34-.25-.78-.31-1.18-.16l-7.24,2.7c-.62.23-.96.91-.75,1.55l2.36,7.46c.11.35.06.73-.13,1.04l-2.18,3.51c-.22.36-.25.81-.07,1.19l4.61,9.75-.14.58-8.28,2.35c-.73.21-1.47-.27-1.58-1.02l-.27-1.84c-.06-.4-.31-.75-.68-.93l-2.61-1.3c-.5-.25-1.1-.14-1.48.27l-2.22,2.41c-.29.31-.4.75-.29,1.16l1.55,6.09c.1.38.01.78-.23,1.09l-5.38,6.8c-.18.23-.28.51-.27.8l.12,5.65c0,.42-.19.81-.53,1.05l-8.06,5.67c-.38.27-.58.72-.52,1.18l.28,2.26c.04.29.17.56.39.76l5.04,4.68c.4.37.51.96.28,1.45l-.72,1.52c-.12.25-.15.54-.09.81l.99,4.33c.04.19.13.37.26.52l5.34,6.45c.39.47,1.05.59,1.58.29l3.53-2c.52-.29,1.17-.18,1.56.27l4.59,5.26c.38.43,1,.55,1.51.29l5.69-2.9c.14-.07.27-.17.37-.29l4.88-5.58v-.58l7.05,6.77c.19.19.44.3.71.34l6.77.86c.45.06.84.36,1.01.79l1.56,4c.12.31.11.66-.03.97l-1.52,3.35c-.18.39-.14.85.1,1.21l2.03,3.05c.28.42.28.97,0,1.39l-1.85,2.77c-.33.5-.26,1.16.16,1.58l9.91,9.79c.43.42,1.09.48,1.58.14l4.52-3.08c.54-.37,1.28-.26,1.69.26l.53.67c.48.6,1.38.64,1.9.07l2.02-2.19c.2-.21.46-.35.75-.39l6.5-.91c.17-.02.33-.08.48-.17l2.9-1.76c.53-.32,1.2-.21,1.6.26l2.89,3.4c.28.33.72.49,1.15.43l3.41-.53c.33-.05.66.03.93.22l5.92,4.3h.72l5,.83c.6.1,1.04.62,1.04,1.23v3.12c0,.19.04.37.12.54l5.21,10.98.14.72.13,6.88c0,.46.27.89.69,1.09l1.8.9c.08.04.15.09.22.14l7.58,6.07c.61.49,1.51.31,1.88-.38l3.99-7.31c.16-.3.2-.64.1-.97l-2.17-7.05c-.1-.32-.06-.66.09-.96l2.16-4.03c.36-.68,1.25-.87,1.86-.41l4.63,3.51c.13.1.27.17.42.21l6.41,1.78c.48.13.83.54.9,1.03l.8,5.6c.07.49.42.89.9,1.03l4.78,1.33c.39.11.71.4.84.78l2.09,5.86c.11.3.33.55.62.7l4.04,2.02c.51.26.79.83.66,1.39l-1.03,4.56c-.12.53.11,1.07.58,1.35l7.74,4.61c.63.38,1.45.13,1.77-.53l.91-1.89c.38-.78,1.42-.96,2.02-.33l6.02,6.18c.11.11.19.24.25.38l2.26,5.28c.08.19.21.35.36.48l10.36,8.37c.08.07.16.14.22.23l2.65,3.6c.1.13.16.28.2.43l1.09,4.24c.17.65.82,1.05,1.47.91l3.38-.72c.38-.08.78.02,1.08.28l3.86,3.35c.27.23.42.56.43.92l.18,8.66c0,.31.13.61.35.84l4.81,4.98c.27.28.65.42,1.04.37l5.88-.65c.56-.06,1.09.25,1.3.77l.95,2.33c.21.51.72.82,1.26.77l4.99-.41c.44-.04.86.16,1.11.51l2.47,3.4c.26.36.69.55,1.12.51l.26-.02c.71-.06,1.33.47,1.36,1.19l.11,2.36c.02.42.25.8.61,1.01l1.94,1.17c.36.22.59.6.61,1.02l.16,4.19c.01.32.15.63.38.85l3.84,3.72c.2.19.45.31.72.34l5.99.74c.73.09,1.23.79,1.07,1.51l-.66,2.99c-.08.36,0,.74.23,1.03l4.89,6.35c.73.94,2.24.43,2.24-.76V2.25c0-.69-.56-1.25-1.25-1.25H4.98Z"/>
  </g>
</svg>