<?xml version="1.0" encoding="UTF-8"?>
<svg id="Layer_2" data-name="Layer 2" xmlns="http://www.w3.org/2000/svg" viewBox="0 0 209.47 203.23">
  <defs>
    <style>
      .cls-1 {
        fill: none;
        stroke: #000;
        stroke-miterlimit: 10;
        stroke-width: 2px;
      }
    </style>
  </defs>
  <g id="Layer_2_copy" data-name="Layer 2 copy">
    <path class="cls-1" d="M113,190.42l.21-4.04c.02-.4-.15-.79-.47-1.04l-4.21-3.35c-.31-.24-.48-.62-.47-1.01l.32-13.22c0-.38.19-.74.5-.97l6.32-4.76c.21-.16.47-.25.73-.25l22.44-.32c.82-.01,1.41-.8,1.18-1.59l-2.34-8.25c-.13-.46.01-.95.36-1.27l5.43-4.91c.32-.29.47-.72.39-1.15l-2.04-11.41c-.06-.32.01-.65.19-.92l3.57-5.29c.16-.24.23-.52.21-.8l-.57-6.87c-.06-.68.45-1.29,1.13-1.35l2.87-.26c.46-.04.9.17,1.16.55l3.68,5.56c.25.37.67.58,1.11.56l6.46-.38c.26-.02.52.05.74.19l5.54,3.46c.3.19.66.24,1,.14l6-1.66c.47-.13.83-.53.9-1.02l1.19-7.85c.1-.67-.35-1.31-1.03-1.42l-3.27-.55c-.44-.07-.81-.38-.97-.8l-2.22-6.06c-.11-.3-.1-.64.03-.94l2.52-5.67c.06-.14.15-.27.26-.38l4.06-4.06.44.18,5.01,5.26c.23.24.36.57.34.9l-.13,4.04c-.01.44.21.86.58,1.1l7.6,4.8c.5.32,1.15.24,1.57-.19l1.57-1.63c.18-.19.3-.42.34-.68l.7-4.58c.07-.46.39-.84.83-.99l9.88-3.37c.69-.24,1.04-1.02.74-1.69l-.69-1.57c-.21-.48-.1-1.03.27-1.4l2.7-2.64c.29-.29.43-.7.36-1.11l-.89-5.2c-.04-.21-.02-.43.05-.63l1.19-3.38c.1-.28.09-.58,0-.85l-2.34-6.25s-.02-.06-.04-.08l-2.46-5.34c-.02-.05-.05-.1-.08-.14l-6.94-10.97c-.47-.75-1.55-.78-2.07-.07l-1.77,2.43c-.31.42-.84.61-1.35.47l-6.1-1.69c-.39-.11-.7-.39-.84-.77l-2.62-7.12c-.06-.17-.16-.32-.29-.45l-6.67-6.67c-.17-.17-.29-.4-.34-.64l-1.43-7.16c-.22-1.09-1.65-1.37-2.27-.45l-1.13,1.69c-.33.49-.95.68-1.49.47l-6.55-2.55s-.09-.04-.14-.06l-4.2-2.26c-.64-.35-.85-1.17-.46-1.78l3.27-5.05c.35-.54.23-1.25-.27-1.66l-3.24-2.59c-.05-.04-.1-.08-.16-.11l-4.47-2.55c-.68-.39-1.56-.06-1.81.69l-1.22,3.66c-.22.65-.93,1.01-1.58.79l-3.24-1.08c-.38-.13-.8-.06-1.13.17l-8.1,5.87c-.19.14-.34.33-.43.56l-1.82,4.66c-.12.31-.36.56-.66.69l-3.35,1.47c-.43.19-.94.12-1.3-.18l-3.76-3.12c-.47-.39-.59-1.06-.28-1.59l1.24-2.12c.27-.46.21-1.05-.14-1.45l-3.79-4.33c-.4-.46-.41-1.15-.02-1.62l2-2.43c.38-.47.38-1.14-.01-1.6l-3.65-4.31s-.06-.08-.09-.12l-1.41-2.15c-.23-.35-.63-.57-1.05-.56l-14.57.07c-.27,0-.53-.08-.74-.24l-3.38-2.47c-.27-.2-.61-.28-.94-.22l-5.25.84c-.42.07-.85-.08-1.13-.4l-9.1-10.16c-.4-.45-1.07-.55-1.59-.23l-2.45,1.52c-.39.24-.62.68-.59,1.13l.64,11.36c.02.39-.14.77-.44,1.02l-7.19,6.16c-.6.51-.58,1.45.04,1.93l.23.18c.46.36.61,1,.35,1.53l-1.32,2.68c-.19.39-.17.85.06,1.21l7.26,11.66c.16.25.22.55.18.84l-.9,6.25c-.04.29.02.59.18.84l2.23,3.59c.24.39.25.88.03,1.27l-1.66,2.93c-.03.05-.06.11-.08.17l-2.09,5.48c-.11.28-.3.51-.56.65l-4.72,2.61c-.42.23-.67.69-.64,1.17l.49,8.06c.04.71-.51,1.31-1.22,1.33l-18.4.46c-.15,0-.29.03-.43.09l-6.78,2.69c-.48.19-1.03.07-1.38-.32l-7.22-7.88c-.23-.25-.55-.4-.89-.41l-4.99-.11c-.19,0-.38.04-.56.12l-3.47,1.63c-.15.07-.3.11-.46.12l-13.32.71c-.19.01-.37.06-.54.15l-7.38,4.08c-.4.22-.65.65-.65,1.11l.11,7.41c0,.32.13.63.36.86l4.59,4.66s.07.07.1.1l9.94,8.05c.18.14.39.23.61.27l14.44,2.05c.72.1,1.2.8,1.04,1.51l-2.85,12.93-1.87,8.93c-.05.26-.19.49-.39.67l-3.78,3.41c-.16.14-.35.24-.55.29l-5.31,1.24c-.36.08-.66.32-.83.64l-4.95,9.6c-.27.53-.13,1.18.33,1.55l9.14,7.25c.22.18.49.27.78.27h7.32c.35,0,.68.14.91.4l12.73,13.65c.12.13.26.23.43.3l3.91,1.66c.26.11.48.31.62.56l5.24,9.84c.14.27.18.58.11.87l-1.75,7.46c-.13.55.13,1.12.63,1.39l3.39,1.79c.3.16.65.19.97.09l1.07-.34c.88-.28,1.74.45,1.62,1.36l-1.1,8.12c-.07.49.16.97.58,1.23l4.46,2.75c.2.12.42.19.66.19h44.65c.67,0,1.22-.53,1.25-1.2l.27-6.15c.01-.28.12-.54.3-.76l2.53-2.96c.18-.21.28-.47.3-.75Z"/>
  </g>
</svg>