<?xml version="1.0" encoding="UTF-8"?>
<svg id="Layer_2" data-name="Layer 2" xmlns="http://www.w3.org/2000/svg" viewBox="0 0 199.01 260.05">
  <defs>
    <style>
      .cls-1 {
        fill: none;
        stroke: #000;
        stroke-miterlimit: 10;
        stroke-width: 2px;
      }
    </style>
  </defs>
  <g id="Layer_2_copy" data-name="Layer 2 copy">
    <path class="cls-1" d="M177.13,206.73l-9.86-2.16c-.57-.13-.98-.63-.98-1.22v-6.51c0-.25-.07-.49-.21-.7l-4.92-7.33c-.31-.47-.28-1.08.09-1.51l6.44-7.53c.32-.37.39-.89.19-1.33l-4.34-9.61c-.21-.47-.12-1.01.24-1.38l1.21-1.27c.39-.4.46-1.02.17-1.5l-2.08-3.52c-.14-.23-.2-.51-.17-.78l.59-5.07c.06-.53.45-.96.97-1.07l4.28-.97c.71-.16,1.14-.9.91-1.6l-1.42-4.47c-.23-.74.25-1.5,1.01-1.62l6.67-.97c.51-.07.92-.45,1.04-.95l1.21-5.18c.14-.58-.16-1.18-.7-1.42l-3.6-1.63c-.68-.31-.94-1.14-.56-1.78l2.57-4.31c.21-.36.23-.79.06-1.17l-1.37-2.94c-.22-.48-.73-.77-1.25-.72l-4.52.44c-.34.03-.68-.08-.94-.3l-3.88-3.4c-.22-.19-.37-.46-.41-.75l-.67-4.34c-.08-.51-.47-.92-.97-1.03l-12.26-2.64c-.24-.05-.46-.17-.63-.35l-8.21-8.34c-.39-.39-.99-.49-1.47-.23l-1.33.7c-.38.2-.83.19-1.2-.02l-6.1-3.43c-.17-.09-.36-.15-.55-.16l-3.32-.17c-.93-.05-1.48-1.06-1.02-1.87l2.29-4c.12-.21.17-.44.16-.68l-.54-11.78c-.02-.38-.21-.73-.51-.95l-10.25-7.46c-.26-.19-.44-.47-.5-.79l-1.88-10.63c-.12-.66.3-1.29.96-1.44l2.75-.62c.36-.08.67-.32.84-.65l4.49-8.86c.19-.38.18-.83-.04-1.2l-3.41-5.84c-.19-.33-.52-.55-.9-.61l-8.01-1.16c-.74-.11-1.22-.83-1.03-1.56l.16-.63c.12-.47-.04-.97-.41-1.28l-3.04-2.53c-.41-.34-1-.39-1.46-.1l-9.13,5.63c-.41.25-.92.25-1.33-.01l-5.45-3.48c-.42-.27-.64-.76-.56-1.26l1.66-10.08c.16-.98-.83-1.75-1.74-1.35l-2.98,1.31c-.5.22-1.08.09-1.44-.32l-1.09-1.24c-.21-.24-.32-.56-.31-.89l.37-7.17c.02-.44-.19-.87-.57-1.11l-5.97-3.89c-.06-.04-.12-.07-.18-.1l-6.19-2.73c-.54-.24-.84-.82-.72-1.4l1.08-5.13c.16-.77-.41-1.49-1.2-1.51l-6.79-.15c-.29,0-.58.09-.81.27l-6.78,5.43c-.57.45-.63,1.29-.14,1.82l7.11,7.72c.25.28.37.65.32,1.02l-1.12,7.97c-.04.25-.15.49-.32.67l-5.09,5.54c-.42.45-1.1.54-1.61.19l-4.23-2.82c-.46-.31-1.07-.27-1.5.08l-4.61,3.89c-.25.21-.57.32-.9.29l-5.8-.45c-.42-.03-.82.14-1.08.47l-7.57,9.59c-.04.05-.09.1-.14.15l-8.4,7.71c-.19.17-.32.4-.37.65l-1.01,4.45c-.1.44-.42.79-.85.92l-5.39,1.66c-.52.16-.88.65-.88,1.19v9.35c0,.75-.66,1.34-1.41,1.24l-6.42-.84c-.87-.11-1.59.69-1.37,1.54l1.62,6.48c.02.09.03.18.04.27l.83,30.8c0,.08,0,.16-.02.24l-4.1,24.58c-.05.31.01.63.19.89l17.62,27.04c.11.16.25.3.42.4l16.68,9.77c.18.1.33.25.43.42l9.77,15.88c.09.14.2.27.34.36l9.54,6.76c.21.15.46.23.72.23h25.63c.69,0,1.25.56,1.25,1.25v10.51c0,.69.56,1.25,1.25,1.25h7.01c.35,0,.68.15.92.4l18.4,20.04c.07.08.16.15.25.21l28.51,18.18c.2.13.43.2.67.2h8.58c.19,0,.38.04.55.13l20.15,9.87c.1.05.21.09.32.11l11.05,2.05c.08.01.15.02.23.02h11.15c.31,0,.61-.12.84-.33l4.07-3.73c.37-.34.5-.86.34-1.33l-4.55-13.26c-.14-.4-.06-.85.21-1.19l4.16-5.2c.28-.35.35-.82.19-1.23l-2.57-6.61c-.07-.18-.18-.35-.33-.48l-3.89-3.5c-.05-.05-.1-.1-.15-.16l-5.33-6.83s-.06-.07-.09-.1l-7.8-8.01c-.17-.18-.39-.3-.63-.35Z"/>
  </g>
</svg>