<svg width="320" height="54" viewBox="0 0 320 54" fill="none" xmlns="http://www.w3.org/2000/svg">
<rect width="320" height="54" rx="9" fill="#764134"/>
<ellipse cx="29.5" cy="27" rx="22.5" ry="23" fill="#AD8350"/>
<path d="M24.8125 20.3208C26.2105 20.3208 27.3438 18.8377 27.3438 17.0082C27.3438 15.1787 26.2105 13.6955 24.8125 13.6955C23.4145 13.6955 22.2813 15.1787 22.2813 17.0082C22.2813 18.8377 23.4145 20.3208 24.8125 20.3208Z" fill="#3C522A"/>
<path d="M16.9488 35.7799H32.6763C31.2588 34.499 27.8331 33.0193 24.8125 33.0193C21.7919 33.0193 18.3663 34.499 16.9488 35.7799Z" fill="#3C522A"/>
<path d="M24.8125 24.7377C28.0694 24.7377 30.7188 21.2705 30.7188 17.0082C30.7188 12.7459 28.0694 9.27869 24.8125 9.27869C21.5556 9.27869 18.9063 12.7459 18.9063 17.0082C18.9063 21.2705 21.5556 24.7377 24.8125 24.7377ZM24.8125 13.6955C26.2131 13.6955 27.3438 15.1752 27.3438 17.0082C27.3438 18.8412 26.2131 20.3208 24.8125 20.3208C23.4119 20.3208 22.2813 18.8412 22.2813 17.0082C22.2813 15.1752 23.4119 13.6955 24.8125 13.6955ZM24.8125 28.6025C20.8638 28.6025 13 31.1863 13 36.332V40.1967H36.625V36.332C36.625 31.1863 28.7613 28.6025 24.8125 28.6025ZM16.9488 35.7799C18.3663 34.499 21.7919 33.0193 24.8125 33.0193C27.8331 33.0193 31.2588 34.499 32.6763 35.7799H16.9488ZM36.6925 28.735C38.65 30.59 40 33.0635 40 36.332V40.1967H46.75V36.332C46.75 31.8709 40.8438 29.3312 36.6925 28.735ZM34.9375 24.7377C38.1944 24.7377 40.8438 21.2705 40.8438 17.0082C40.8438 12.7459 38.1944 9.27869 34.9375 9.27869C34.0263 9.27869 33.1825 9.56578 32.4062 10.0516C33.4694 12.0171 34.0938 14.4243 34.0938 17.0082C34.0938 19.5921 33.4694 21.9992 32.4062 23.9648C33.1825 24.4506 34.0263 24.7377 34.9375 24.7377Z" fill="#3C522A"/>
<path d="M303.125 27.375C303.125 19.44 296.825 13 289.062 13C281.3 13 275 19.44 275 27.375C275 35.31 281.3 41.75 289.062 41.75C296.825 41.75 303.125 35.31 303.125 27.375ZM289.062 31.3856V28.8125H284.844C284.07 28.8125 283.438 28.1656 283.438 27.375C283.438 26.5844 284.07 25.9375 284.844 25.9375H289.062V23.3644C289.062 22.7175 289.822 22.4012 290.258 22.8612L294.181 26.8719C294.463 27.1594 294.463 27.605 294.181 27.8925L290.258 31.9031C290.159 32.0025 290.033 32.0696 289.897 32.096C289.76 32.1225 289.619 32.107 289.491 32.0517C289.364 31.9963 289.255 31.9036 289.178 31.785C289.102 31.6665 289.062 31.5275 289.062 31.3856Z" fill="#AD8350"/>
</svg>
